<?xml version="1.0" standalone="no"?>
<!DOCTYPE svg PUBLIC "-//W3C//DTD SVG 20010904//EN"
 "http://www.w3.org/TR/2001/REC-SVG-20010904/DTD/svg10.dtd">
<svg version="1.0" xmlns="http://www.w3.org/2000/svg"
 width="3500.000000pt" height="3500.000000pt" viewBox="0 0 3500.000000 3500.000000"
 preserveAspectRatio="xMidYMid meet">

<g transform="translate(0.000000,3500.000000) scale(0.100000,-0.100000)"
fill="#000000" stroke="none">
<path d="M0 17500 l0 -17500 17500 0 17500 0 0 17500 0 17500 -17500 0 -17500
0 0 -17500z m32310 5430 c0 -5 15 -10 33 -10 36 0 148 -25 189 -41 30 -12 98
-72 98 -87 0 -5 11 -21 25 -36 14 -15 36 -64 51 -112 23 -74 26 -96 21 -167
-6 -90 -22 -147 -46 -174 -21 -23 -46 -79 -55 -121 -4 -17 -11 -32 -15 -32
-10 0 -31 -46 -31 -70 0 -10 -6 -25 -13 -32 -6 -7 -25 -40 -41 -73 -16 -33
-32 -62 -36 -65 -9 -7 -60 -116 -60 -129 0 -6 -4 -11 -9 -11 -5 0 -19 -25 -31
-55 -12 -30 -27 -55 -34 -55 -6 0 -20 -21 -30 -48 -30 -73 -88 -196 -95 -202
-4 -3 -15 -26 -25 -53 -10 -26 -23 -53 -30 -60 -6 -6 -25 -42 -40 -79 -16 -38
-32 -68 -36 -68 -4 0 -18 -22 -31 -50 -13 -27 -26 -50 -30 -50 -3 0 -18 -29
-34 -65 -16 -36 -33 -65 -37 -65 -4 0 -8 -9 -8 -20 0 -20 -38 -101 -52 -110
-4 -3 -21 -36 -37 -72 -17 -37 -34 -69 -39 -72 -5 -3 -14 -23 -22 -45 -7 -23
-16 -41 -20 -41 -4 0 -20 -30 -35 -67 -16 -38 -35 -72 -43 -76 -7 -5 -22 -29
-33 -54 -10 -24 -26 -51 -34 -59 -8 -9 -15 -26 -15 -40 0 -13 -9 -33 -20 -44
-11 -11 -32 -49 -46 -85 -14 -36 -30 -65 -34 -65 -4 0 -18 -25 -31 -55 -12
-30 -26 -55 -29 -55 -4 0 -19 -31 -34 -70 -15 -38 -31 -70 -34 -70 -4 0 -18
-24 -32 -53 -14 -28 -28 -54 -31 -57 -18 -17 -39 -58 -39 -78 0 -12 -6 -25
-14 -28 -7 -3 -26 -35 -42 -72 -15 -37 -31 -69 -34 -72 -4 -3 -20 -32 -36 -65
-16 -33 -34 -64 -40 -70 -7 -5 -14 -22 -18 -37 -3 -15 -13 -34 -21 -42 -9 -8
-27 -41 -41 -73 -14 -32 -29 -60 -33 -63 -3 -3 -17 -30 -31 -60 -14 -30 -27
-57 -31 -60 -3 -3 -16 -27 -29 -55 -13 -27 -27 -52 -31 -55 -5 -3 -20 -32 -35
-65 -15 -33 -30 -62 -34 -65 -4 -3 -33 -59 -66 -125 -32 -66 -65 -124 -71
-128 -7 -4 -13 -13 -13 -18 0 -15 -78 -175 -92 -191 -7 -7 -26 -42 -43 -78
-16 -36 -35 -69 -42 -75 -7 -5 -22 -32 -33 -60 -12 -27 -24 -52 -28 -55 -16
-12 -42 -61 -42 -80 0 -11 -3 -20 -8 -20 -4 0 -18 -24 -32 -52 -13 -29 -32
-61 -42 -71 -10 -10 -18 -26 -18 -36 0 -24 -28 -91 -38 -91 -4 0 -18 -24 -32
-52 -13 -29 -27 -55 -31 -58 -3 -3 -19 -30 -34 -60 -15 -30 -31 -57 -35 -60
-5 -3 -19 -31 -33 -62 -14 -32 -35 -67 -46 -80 -12 -12 -21 -28 -21 -37 0 -21
-23 -81 -31 -81 -4 0 -15 -20 -25 -45 -9 -25 -20 -45 -24 -45 -3 0 -17 -25
-29 -56 -13 -31 -31 -63 -41 -72 -9 -9 -27 -43 -40 -74 -13 -32 -27 -58 -32
-58 -4 0 -8 -6 -8 -13 0 -8 -9 -24 -20 -37 -11 -13 -20 -29 -20 -36 0 -7 -6
-19 -14 -26 -7 -8 -24 -34 -36 -59 -13 -24 -25 -46 -29 -49 -9 -7 -41 -105
-41 -124 0 -9 -4 -16 -8 -16 -5 0 -22 -26 -38 -57 -16 -32 -34 -61 -39 -65 -6
-4 -22 -31 -35 -60 -14 -29 -28 -55 -32 -58 -4 -3 -16 -27 -27 -53 -11 -26
-24 -47 -29 -47 -5 0 -17 -21 -27 -46 -10 -26 -25 -54 -34 -63 -24 -25 -61
-96 -61 -117 0 -19 -49 -125 -62 -134 -4 -3 -14 -21 -22 -40 -8 -19 -24 -45
-35 -57 -12 -13 -34 -51 -48 -85 -15 -35 -33 -67 -39 -73 -7 -5 -22 -35 -35
-65 -13 -30 -26 -57 -30 -60 -3 -3 -14 -20 -23 -38 -9 -18 -24 -36 -32 -39 -7
-3 -14 -12 -14 -21 0 -20 -31 -105 -41 -112 -4 -3 -19 -35 -34 -72 -15 -38
-31 -68 -35 -68 -4 0 -20 -24 -35 -52 -15 -29 -30 -55 -34 -58 -3 -3 -17 -27
-31 -55 -14 -27 -28 -52 -31 -55 -4 -3 -19 -32 -35 -65 -15 -33 -34 -66 -41
-73 -7 -7 -13 -20 -13 -29 0 -19 -31 -75 -47 -86 -7 -4 -13 -17 -13 -27 0 -23
-29 -89 -48 -109 -7 -7 -20 -31 -29 -52 -8 -22 -19 -39 -23 -39 -4 0 -17 -22
-29 -50 -12 -27 -27 -53 -35 -57 -8 -4 -26 -38 -41 -75 -15 -36 -32 -69 -39
-71 -7 -3 -18 -24 -26 -48 -8 -24 -17 -46 -21 -49 -3 -3 -33 -59 -65 -125 -32
-66 -63 -125 -69 -131 -5 -6 -21 -34 -34 -62 -14 -29 -28 -52 -32 -52 -3 0
-17 -25 -29 -55 -12 -30 -26 -55 -29 -55 -8 0 -26 -35 -80 -152 -17 -36 -36
-72 -44 -80 -7 -7 -24 -40 -38 -73 -13 -33 -29 -64 -35 -70 -6 -5 -19 -30 -30
-55 -10 -25 -23 -50 -29 -56 -6 -6 -22 -33 -35 -60 -14 -27 -28 -51 -31 -54
-3 -3 -32 -58 -63 -122 -31 -65 -60 -118 -65 -118 -5 0 -19 -25 -31 -55 -12
-30 -26 -55 -30 -55 -4 0 -15 -25 -25 -55 -9 -31 -22 -61 -29 -68 -6 -7 -25
-34 -40 -62 -16 -27 -32 -52 -36 -55 -3 -3 -16 -30 -29 -60 -13 -30 -30 -59
-37 -63 -8 -4 -14 -17 -14 -27 0 -18 -28 -88 -40 -100 -16 -16 -60 -88 -60
-98 0 -7 -4 -12 -8 -12 -8 0 -45 -74 -91 -183 -11 -26 -30 -57 -42 -70 -11
-12 -28 -39 -36 -59 -8 -21 -19 -38 -23 -38 -4 0 -15 -25 -25 -55 -9 -31 -22
-61 -29 -68 -7 -7 -21 -33 -32 -60 -10 -26 -30 -60 -43 -75 -13 -15 -30 -43
-38 -62 -8 -19 -21 -39 -28 -45 -8 -5 -25 -39 -40 -75 -31 -77 -74 -163 -85
-170 -9 -6 -71 -127 -94 -185 -9 -21 -20 -42 -25 -45 -4 -3 -18 -27 -30 -53
-13 -26 -28 -53 -35 -60 -6 -7 -24 -38 -41 -70 -16 -31 -33 -57 -36 -57 -5 0
-18 -35 -34 -97 -4 -13 -10 -23 -15 -23 -9 0 -80 -143 -80 -160 0 -6 -4 -10
-9 -10 -5 0 -14 -15 -22 -32 -7 -18 -16 -35 -19 -38 -3 -3 -19 -32 -35 -65
-16 -33 -35 -66 -42 -73 -8 -8 -20 -30 -29 -50 -8 -20 -18 -39 -22 -42 -4 -3
-20 -31 -37 -62 -16 -32 -32 -58 -35 -58 -3 0 -11 -20 -19 -44 -7 -24 -20 -52
-29 -62 -9 -11 -24 -32 -32 -48 -18 -34 -90 -106 -107 -106 -7 0 -13 -4 -13
-10 0 -13 -60 -28 -155 -41 -44 -6 -82 -14 -85 -19 -3 -5 -59 -19 -125 -30
-66 -12 -122 -25 -125 -30 -3 -4 -75 -20 -160 -36 -85 -15 -156 -31 -158 -36
-2 -4 -16 -8 -30 -8 -40 0 -296 -42 -302 -50 -5 -8 -184 -45 -267 -56 -29 -4
-53 -10 -53 -14 0 -4 -58 -17 -130 -30 -71 -13 -130 -26 -130 -30 0 -4 -39
-12 -87 -19 -163 -22 -238 -34 -243 -41 -3 -3 -78 -19 -167 -35 -90 -16 -163
-32 -163 -36 0 -4 -30 -10 -67 -14 -107 -10 -273 -37 -273 -45 0 -4 -62 -17
-137 -30 -76 -13 -140 -26 -143 -30 -5 -6 -284 -60 -312 -60 -9 0 -18 -4 -20
-8 -1 -4 -48 -16 -103 -25 -319 -55 -511 -91 -515 -97 -6 -7 -174 -36 -267
-46 -35 -3 -63 -9 -63 -13 0 -5 -39 -13 -87 -20 -117 -16 -247 -42 -253 -51
-3 -4 -39 -12 -80 -19 -136 -21 -255 -45 -260 -51 -3 -4 -68 -17 -145 -30 -77
-13 -142 -27 -145 -31 -7 -9 -247 -49 -294 -49 -20 0 -36 -4 -36 -8 0 -10
-247 -52 -302 -52 -21 0 -38 -4 -38 -9 0 -5 -15 -11 -33 -13 -113 -17 -303
-52 -307 -58 -3 -4 -63 -17 -135 -29 -71 -12 -132 -26 -135 -30 -3 -4 -80 -20
-172 -36 -93 -15 -168 -31 -168 -35 0 -4 -24 -10 -52 -14 -100 -13 -283 -49
-286 -58 -5 -12 -72 -10 -72 2 0 6 -12 10 -27 10 -56 -1 -658 54 -663 60 -3 4
-158 19 -345 35 -187 16 -342 32 -345 35 -4 5 -197 24 -485 47 -44 3 -82 9
-85 13 -4 5 -360 39 -607 57 -46 3 -83 9 -83 13 0 4 -62 10 -137 13 -191 7
-537 38 -541 48 -2 5 -43 9 -90 9 -102 0 -595 41 -602 51 -3 3 -39 9 -80 12
-259 20 -476 41 -480 47 -3 3 -68 11 -145 18 -402 32 -540 45 -545 52 -3 4
-68 12 -145 18 -378 29 -550 46 -555 53 -3 5 -62 11 -130 14 -199 9 -545 37
-550 44 -3 4 -147 19 -320 34 -797 67 -935 80 -940 87 -3 3 -70 11 -150 18
-366 29 -545 46 -550 52 -3 3 -135 17 -295 30 -159 13 -292 27 -295 31 -5 7
-344 34 -555 44 -71 3 -132 10 -135 14 -3 4 -36 11 -75 14 -487 41 -601 52
-605 57 -3 4 -86 12 -185 19 -372 24 -480 33 -485 40 -3 3 -49 16 -103 28 -54
12 -105 29 -113 38 -8 8 -22 15 -30 15 -20 0 -94 38 -94 49 0 5 -15 16 -33 25
-41 19 -117 84 -117 100 0 6 -9 19 -20 29 -11 9 -20 23 -20 31 0 9 -23 84 -50
168 -28 84 -50 158 -50 165 0 7 -4 13 -10 13 -5 0 -10 8 -10 18 0 21 -30 114
-39 122 -7 6 -27 58 -48 125 -8 28 -18 52 -22 55 -4 3 -20 44 -36 93 -16 48
-32 87 -36 87 -4 0 -17 33 -29 73 -12 39 -25 74 -29 77 -9 7 -39 98 -47 143
-3 20 -10 37 -14 37 -10 0 -35 77 -45 135 -4 22 -10 42 -14 45 -4 3 -20 41
-35 85 -16 44 -32 82 -36 85 -9 6 -50 126 -50 147 0 7 -4 13 -9 13 -5 0 -21
38 -35 85 -15 47 -30 85 -35 85 -5 0 -21 39 -36 88 -16 48 -31 89 -34 92 -6 4
-21 61 -38 143 -3 15 -8 27 -12 27 -4 0 -18 35 -31 78 -13 42 -27 79 -31 82
-4 3 -19 42 -34 88 -14 45 -30 82 -34 82 -5 0 -21 39 -36 88 -15 48 -31 89
-34 92 -4 3 -19 43 -35 90 -16 47 -32 87 -36 90 -11 7 -60 152 -60 176 0 27
-40 144 -49 144 -4 0 -20 39 -36 88 -16 48 -32 89 -36 92 -4 3 -15 32 -25 65
-10 33 -22 65 -28 70 -6 6 -24 48 -40 95 -16 47 -32 87 -36 90 -4 3 -19 44
-35 93 -15 48 -31 87 -35 87 -5 0 -10 17 -13 38 -6 45 -28 125 -36 132 -4 3
-17 40 -31 83 -13 42 -27 77 -31 77 -4 0 -17 33 -29 73 -12 39 -27 77 -34 82
-6 6 -23 46 -36 89 -13 43 -29 84 -35 90 -6 6 -21 47 -35 91 -13 44 -29 85
-35 90 -6 6 -19 41 -28 79 -10 39 -21 72 -26 75 -10 7 -28 63 -36 119 -4 23
-12 48 -18 55 -13 13 -30 54 -53 126 -8 25 -18 47 -23 50 -4 4 -20 47 -36 96
-15 50 -31 92 -34 95 -4 3 -18 33 -30 68 -13 34 -27 62 -30 62 -8 0 -36 95
-46 153 -3 20 -10 37 -15 37 -4 0 -12 15 -15 33 -4 17 -11 37 -15 42 -4 6 -14
29 -21 53 -6 23 -16 42 -21 42 -4 0 -8 12 -8 27 0 28 -28 114 -41 123 -3 3 -9
16 -13 30 -12 41 -49 135 -56 140 -4 3 -19 43 -34 90 -15 46 -30 87 -34 90 -8
6 -50 123 -90 250 -14 47 -32 91 -38 97 -7 7 -16 27 -19 45 -4 18 -11 38 -15
43 -4 6 -24 64 -45 130 -21 66 -42 122 -45 125 -4 3 -20 43 -36 90 -16 47 -34
90 -40 95 -6 6 -19 38 -29 73 -10 34 -22 62 -27 62 -4 0 -8 10 -8 22 0 30 -42
158 -52 158 -4 0 -8 8 -8 18 0 10 -4 22 -9 27 -5 6 -17 37 -27 70 -10 33 -20
62 -24 65 -13 11 -30 63 -30 90 0 16 -7 35 -15 44 -8 8 -15 20 -15 26 0 7 -6
26 -14 43 -8 18 -20 51 -26 75 -6 23 -15 42 -20 42 -4 0 -12 15 -15 33 -4 17
-11 37 -15 42 -4 6 -13 31 -20 57 -7 27 -16 48 -21 48 -4 0 -11 17 -14 38 -9
51 -35 132 -43 132 -4 0 -18 36 -32 80 -14 44 -28 80 -31 80 -3 0 -19 39 -34
88 -16 48 -35 93 -42 100 -7 7 -13 22 -13 33 0 24 -31 122 -40 129 -4 3 -20
44 -35 93 -16 48 -32 87 -36 87 -9 0 -25 51 -34 108 -4 23 -10 42 -14 42 -5 0
-20 38 -35 85 -15 47 -31 85 -35 85 -8 0 -51 124 -51 147 0 6 -6 18 -13 25 -7
7 -23 49 -37 93 -13 44 -29 89 -36 100 -6 11 -19 47 -29 80 -10 33 -21 62 -25
65 -10 7 -50 135 -50 160 0 12 -6 27 -13 35 -8 7 -24 46 -37 87 -13 40 -27 75
-31 78 -4 3 -17 38 -29 78 -12 39 -25 72 -29 72 -4 0 -20 39 -36 88 -16 48
-33 90 -37 93 -4 3 -18 43 -29 90 -12 46 -25 87 -30 90 -9 5 -99 275 -99 296
0 7 -6 16 -13 20 -8 4 -20 31 -27 58 -8 28 -20 61 -27 75 -7 14 -13 33 -13 43
0 9 -4 17 -9 17 -5 0 -17 26 -25 58 -9 31 -21 65 -26 74 -6 10 -10 25 -10 33
0 8 -4 15 -8 15 -5 0 -21 41 -37 90 -16 50 -32 90 -36 90 -5 0 -11 17 -14 38
-8 53 -27 112 -35 112 -4 0 -11 17 -14 38 -9 48 -38 146 -46 152 -6 5 -32 88
-52 165 -20 80 20 250 68 287 13 11 24 25 24 33 0 7 11 20 25 29 14 9 25 22
25 29 0 12 60 40 112 53 16 3 28 9 28 13 0 12 123 31 203 31 77 0 178 -16 187
-30 3 -4 25 -12 50 -18 101 -24 170 -45 170 -52 0 -4 38 -17 85 -30 47 -13 85
-26 85 -30 0 -7 98 -34 163 -45 20 -3 37 -10 37 -14 0 -5 12 -12 27 -15 67
-16 163 -49 163 -57 0 -4 26 -13 58 -19 73 -15 136 -32 142 -40 3 -4 38 -17
78 -30 39 -13 72 -27 72 -32 0 -4 6 -8 14 -8 18 0 170 -51 176 -59 8 -10 144
-51 168 -51 12 0 22 -4 22 -10 0 -5 6 -10 14 -10 18 0 170 -51 176 -59 3 -4
39 -18 80 -31 41 -13 78 -28 81 -33 3 -4 23 -10 45 -13 46 -7 127 -32 134 -42
3 -4 46 -21 95 -37 50 -16 92 -32 95 -35 3 -4 79 -31 170 -60 91 -29 167 -56
170 -60 3 -4 44 -19 93 -34 48 -14 87 -30 87 -34 0 -5 28 -17 63 -27 34 -10
102 -31 150 -47 48 -15 94 -28 102 -28 8 0 18 -7 22 -15 8 -13 93 -44 171 -62
12 -3 22 -9 22 -14 0 -4 17 -11 38 -14 65 -11 147 -38 155 -52 4 -7 13 -13 20
-13 17 0 151 -43 157 -50 3 -3 37 -17 75 -29 39 -13 72 -27 75 -31 7 -12 126
-50 154 -50 13 0 26 -4 28 -8 1 -4 44 -21 93 -37 50 -16 92 -32 95 -36 6 -7
55 -23 125 -39 27 -6 52 -15 55 -19 3 -4 37 -18 75 -32 39 -13 72 -26 75 -29
7 -7 66 -29 130 -48 30 -9 56 -19 58 -24 2 -4 42 -20 90 -35 48 -15 89 -30 92
-34 3 -4 46 -17 95 -29 50 -12 93 -27 97 -33 8 -14 84 -37 121 -37 15 0 27 -3
27 -8 0 -4 39 -20 87 -37 49 -16 90 -32 93 -36 6 -8 157 -59 176 -59 8 0 14
-4 14 -9 0 -6 34 -20 75 -32 41 -13 75 -26 75 -30 0 -4 39 -20 87 -34 49 -15
160 -51 248 -80 88 -29 175 -56 193 -60 17 -3 32 -10 32 -15 0 -4 34 -19 75
-31 41 -13 75 -27 75 -31 0 -4 39 -19 87 -33 49 -15 90 -30 93 -34 3 -4 28
-14 55 -21 28 -8 61 -20 75 -27 14 -7 30 -13 37 -13 6 0 13 -3 15 -8 3 -8 123
-44 198 -60 50 -11 142 -43 150 -54 3 -3 48 -19 100 -34 52 -16 97 -31 100
-35 3 -3 43 -19 90 -35 47 -16 90 -34 96 -39 6 -6 43 -19 82 -29 40 -10 72
-22 72 -27 0 -5 9 -9 19 -9 11 0 22 -4 25 -8 3 -5 35 -17 71 -27 36 -9 65 -21
65 -25 0 -7 43 -16 163 -35 20 -3 37 -10 37 -14 0 -5 24 -15 53 -24 64 -19
120 -40 127 -48 3 -3 41 -15 85 -28 44 -13 82 -26 85 -30 3 -4 46 -20 95 -36
50 -16 92 -32 95 -36 3 -3 46 -18 95 -32 l90 -26 170 26 c94 14 172 30 173 34
2 5 11 9 20 9 30 -1 357 54 362 60 3 4 71 17 153 30 81 13 147 27 147 31 0 4
21 10 48 13 109 15 297 50 302 57 3 4 84 15 180 23 96 9 177 21 178 26 2 6 13
10 25 10 35 0 321 53 327 60 3 4 25 10 50 13 119 18 240 42 240 49 0 4 10 8
23 8 33 0 321 53 327 60 3 3 80 19 173 35 92 15 167 32 167 37 0 4 10 8 22 8
12 0 88 11 168 25 80 13 181 29 225 35 106 15 115 18 115 40 0 10 8 25 18 32
10 7 28 30 41 50 12 21 28 41 34 45 13 9 57 69 57 78 0 3 6 13 13 21 31 39 95
110 120 135 15 15 27 31 27 37 0 5 7 15 15 22 8 7 15 18 15 26 0 7 10 24 23
38 12 13 36 41 52 61 30 37 69 83 113 131 12 14 22 29 22 33 0 4 9 16 20 26
11 10 20 24 20 32 0 7 6 16 14 19 8 3 31 31 51 62 20 31 50 71 66 87 74 77
129 141 129 150 0 6 9 16 20 23 11 7 20 20 20 30 0 10 11 28 24 39 13 11 32
35 42 52 10 17 24 31 31 31 7 0 13 7 13 16 0 8 14 29 30 46 16 16 30 33 30 37
0 4 22 30 50 57 27 27 50 54 50 60 0 7 11 19 25 28 14 9 25 23 25 31 0 7 11
22 25 33 14 11 25 23 25 26 0 9 40 64 63 88 9 10 17 22 17 26 0 5 26 36 58 70
31 35 69 77 85 95 15 17 50 57 78 87 28 30 63 71 78 90 48 64 74 90 92 90 22
0 69 21 69 30 0 4 42 17 94 30 141 34 308 20 365 -29 12 -10 35 -24 51 -31 17
-7 30 -19 30 -27 0 -8 33 -48 73 -89 117 -123 140 -148 172 -189 17 -21 41
-50 55 -64 23 -24 46 -59 68 -106 6 -11 31 -42 56 -70 25 -27 46 -55 46 -63 0
-7 7 -15 15 -19 9 -3 22 -18 30 -33 8 -15 32 -47 55 -71 22 -24 40 -49 40 -56
0 -7 9 -17 20 -23 11 -6 23 -22 26 -36 3 -13 15 -29 25 -35 11 -5 27 -28 37
-49 9 -22 20 -40 24 -40 4 0 14 -12 22 -27 8 -16 26 -41 41 -58 14 -16 42 -50
63 -74 20 -25 53 -61 73 -81 20 -20 40 -47 44 -58 3 -12 10 -22 15 -22 5 0 11
-8 15 -17 3 -10 23 -38 45 -63 22 -24 43 -53 46 -63 10 -32 48 -38 172 -26 64
6 119 14 122 18 3 4 82 20 175 36 94 16 172 32 175 35 3 4 84 19 180 35 96 16
177 31 180 35 3 4 70 17 150 30 80 13 147 27 150 31 3 4 43 12 90 18 196 26
245 34 250 40 5 6 146 32 288 53 39 6 72 15 72 20 0 4 19 8 41 8 47 0 291 41
299 50 3 3 71 16 153 30 81 13 147 26 147 30 0 3 35 12 78 19 145 23 257 45
262 51 5 6 193 35 298 46 34 3 62 9 62 13 0 4 35 13 78 20 142 23 257 45 262
51 4 4 241 47 550 98 52 9 97 19 100 23 3 3 82 19 175 34 94 16 172 31 175 34
5 7 121 29 440 82 107 18 197 36 200 39 3 4 50 15 105 24 55 9 129 22 165 28
36 6 67 14 70 18 6 7 196 37 293 46 37 3 67 9 67 13 0 4 62 18 138 31 75 13
139 27 142 30 3 4 52 15 110 24 218 35 240 40 240 48 0 4 23 8 52 8 52 0 279
39 288 50 3 3 52 14 110 23 190 31 245 41 250 47 3 4 66 17 140 30 74 13 137
27 140 31 5 6 51 13 263 40 48 6 87 14 87 19 0 4 78 20 173 35 94 16 175 32
178 37 3 5 37 11 75 14 88 7 257 35 264 44 3 3 70 17 150 30 80 13 147 27 150
31 3 3 82 19 175 34 94 16 172 32 175 35 5 7 33 12 415 76 121 21 222 40 225
44 5 7 167 34 275 46 33 3 62 9 65 13 4 6 104 25 290 54 36 5 67 13 70 17 3 3
50 14 105 23 197 33 240 41 245 47 3 4 68 17 145 29 77 13 142 27 145 31 6 8
203 42 285 48 33 2 62 7 65 11 7 10 265 51 317 51 23 0 43 4 45 8 2 5 83 21
181 37 97 15 177 31 177 35 0 4 17 10 38 12 82 10 257 42 262 48 3 4 86 20
185 35 99 16 182 32 185 35 5 7 330 60 369 60 11 0 21 5 21 10 0 6 23 10 50
10 28 0 50 -4 50 -10z"/>
<path d="M32237 22694 c-4 -5 -23 -7 -42 -6 -18 1 -36 -2 -40 -8 -3 -5 -18 -7
-32 -4 -19 5 -30 2 -40 -11 -7 -11 -13 -13 -13 -7 0 15 -47 16 -52 1 -2 -6
-29 -11 -61 -11 -32 0 -59 -4 -62 -8 -2 -4 -16 -5 -30 -2 -14 2 -25 0 -25 -5
0 -5 -13 -8 -29 -5 -16 2 -32 -1 -35 -7 -4 -6 -20 -8 -36 -4 -23 4 -30 2 -30
-11 0 -9 -4 -16 -10 -16 -5 0 -10 5 -10 10 0 13 -27 13 -32 0 -3 -8 -90 -19
-155 -20 -13 0 -23 -5 -23 -11 0 -6 -11 -8 -29 -4 -16 3 -32 2 -35 -4 -4 -6
-20 -8 -36 -4 -23 4 -30 2 -30 -11 0 -9 -4 -16 -10 -16 -5 0 -10 5 -10 10 0
16 -27 11 -34 -6 -4 -10 -13 -13 -26 -9 -11 3 -25 3 -32 -1 -7 -5 -25 -7 -40
-5 -16 1 -28 -2 -28 -8 0 -7 -10 -9 -24 -5 -13 3 -27 1 -30 -4 -3 -6 -16 -8
-28 -5 -14 4 -26 0 -36 -13 -10 -13 -16 -15 -19 -6 -7 17 -43 15 -43 -3 0 -9
-6 -12 -15 -9 -8 4 -23 3 -32 -1 -10 -4 -30 -7 -45 -6 -16 2 -28 -2 -28 -7 0
-6 -9 -8 -20 -5 -11 3 -28 2 -37 -2 -10 -5 -22 -7 -27 -6 -5 1 -16 -1 -25 -5
-9 -4 -28 -6 -43 -5 -20 2 -28 -2 -28 -13 0 -9 -4 -16 -10 -16 -5 0 -10 5 -10
10 0 14 -27 13 -32 -2 -4 -11 -38 -18 -90 -18 -16 0 -28 -5 -28 -11 0 -7 -11
-8 -29 -4 -17 3 -32 2 -36 -4 -3 -6 -17 -8 -31 -5 -14 4 -24 2 -24 -5 0 -6
-11 -8 -30 -4 -23 4 -30 2 -30 -11 0 -9 -7 -16 -15 -16 -8 0 -15 5 -15 10 0 6
-4 10 -10 10 -5 0 -10 -6 -10 -12 0 -8 -14 -14 -32 -14 -18 -1 -61 -2 -95 -4
-35 -1 -63 -5 -63 -8 0 -4 -23 -8 -52 -9 -37 -1 -56 -6 -65 -19 -7 -10 -13
-12 -13 -6 0 7 -9 12 -20 12 -11 0 -20 -6 -20 -14 0 -9 -7 -12 -20 -9 -11 3
-28 2 -37 -2 -22 -9 -59 -15 -95 -15 -16 0 -28 -5 -28 -11 0 -7 -11 -8 -30 -4
-19 4 -30 3 -30 -4 0 -7 -10 -9 -25 -5 -16 4 -25 2 -25 -6 0 -7 -8 -9 -20 -5
-11 3 -25 3 -32 -1 -7 -5 -25 -7 -40 -5 -16 1 -28 -2 -28 -8 0 -6 -12 -8 -29
-5 -16 3 -32 1 -35 -5 -4 -5 -13 -8 -21 -4 -8 3 -23 2 -32 -2 -10 -4 -30 -7
-45 -6 -21 2 -28 -2 -29 -16 0 -10 -3 -13 -6 -5 -7 17 -33 15 -33 -3 0 -11 -7
-14 -24 -9 -14 3 -31 2 -38 -2 -7 -5 -23 -7 -35 -6 -11 2 -24 -1 -27 -7 -4 -6
-20 -8 -36 -4 -17 3 -30 1 -30 -4 0 -6 -11 -8 -25 -5 -15 2 -25 0 -25 -7 0 -6
-12 -10 -27 -9 -57 4 -83 -2 -83 -18 0 -12 -7 -14 -30 -9 -20 4 -30 3 -30 -5
0 -8 -10 -9 -29 -5 -16 3 -32 2 -35 -4 -4 -6 -13 -8 -21 -4 -8 3 -23 2 -32 -2
-10 -5 -28 -7 -40 -6 -12 1 -26 -6 -33 -16 -8 -13 -13 -14 -16 -5 -7 16 -34
16 -34 -1 0 -9 -10 -12 -30 -9 -18 2 -30 0 -30 -7 0 -6 -7 -8 -15 -5 -8 4 -23
3 -32 -1 -18 -7 -64 -13 -151 -19 -24 -1 -47 -8 -52 -15 -6 -11 -8 -11 -12 0
-4 11 -8 10 -21 -3 -9 -9 -25 -14 -36 -11 -10 3 -22 0 -25 -6 -4 -6 -18 -8
-32 -5 -13 3 -24 2 -24 -3 0 -5 -13 -8 -30 -5 -18 2 -30 0 -30 -7 0 -6 -11 -8
-29 -5 -16 3 -31 1 -35 -4 -3 -6 -16 -8 -28 -5 -14 4 -26 0 -36 -13 -10 -13
-16 -15 -19 -6 -7 17 -33 15 -33 -3 0 -11 -8 -13 -30 -8 -17 3 -30 1 -30 -4 0
-6 -12 -10 -27 -10 -99 -1 -153 -6 -153 -12 0 -5 -11 -6 -25 -3 -18 3 -25 0
-25 -12 0 -9 -4 -16 -10 -16 -5 0 -10 5 -10 10 0 16 -27 12 -34 -5 -4 -11 -13
-14 -30 -9 -13 3 -27 1 -31 -5 -3 -6 -17 -8 -31 -5 -13 3 -24 2 -24 -3 0 -5
-13 -8 -30 -5 -18 3 -30 0 -30 -7 0 -7 -10 -9 -27 -5 -19 5 -30 2 -40 -11 -7
-11 -13 -13 -13 -7 0 17 -27 15 -34 -3 -3 -8 -12 -12 -21 -9 -8 3 -23 3 -32
-1 -10 -4 -30 -7 -45 -6 -16 2 -28 -2 -28 -8 0 -7 -10 -9 -25 -5 -14 3 -25 2
-25 -4 0 -6 -9 -8 -20 -5 -11 3 -28 2 -37 -2 -10 -4 -28 -8 -41 -9 -13 -1 -27
-8 -32 -16 -7 -10 -10 -11 -10 -2 0 6 -7 12 -15 12 -8 0 -15 -7 -15 -16 0 -12
-7 -14 -30 -9 -20 4 -30 3 -30 -5 0 -8 -10 -9 -30 -5 -20 4 -30 3 -30 -5 0 -8
-9 -10 -25 -6 -14 4 -31 3 -37 0 -6 -4 -34 -9 -62 -11 -28 -3 -54 -10 -58 -16
-6 -9 -8 -9 -8 1 0 6 -9 12 -20 12 -11 0 -20 -7 -20 -15 0 -11 -7 -13 -29 -9
-16 3 -32 1 -35 -5 -4 -5 -13 -8 -21 -4 -8 3 -23 2 -32 -2 -22 -9 -59 -15 -95
-15 -16 0 -28 -4 -28 -10 0 -6 -10 -8 -25 -4 -19 5 -25 2 -25 -10 0 -9 -4 -16
-10 -16 -5 0 -10 5 -10 10 0 16 -27 12 -34 -5 -4 -11 -13 -14 -30 -9 -13 3
-27 1 -30 -4 -3 -6 -15 -8 -26 -5 -11 3 -26 0 -34 -6 -8 -7 -25 -9 -40 -5 -15
3 -26 2 -26 -4 0 -5 -11 -7 -25 -4 -18 3 -25 0 -25 -12 0 -9 -4 -16 -10 -16
-5 0 -10 5 -10 10 0 14 -27 13 -32 -1 -4 -12 -45 -18 -135 -19 -29 -1 -53 -6
-53 -11 0 -5 -11 -7 -25 -3 -16 4 -25 2 -25 -6 0 -8 -10 -9 -30 -5 -23 5 -32
3 -36 -10 -6 -13 -9 -14 -16 -3 -7 10 -10 10 -19 -5 -7 -12 -17 -15 -33 -11
-13 3 -27 1 -31 -6 -4 -7 -18 -9 -36 -5 -16 4 -29 3 -29 -2 0 -5 -13 -8 -30
-5 -18 3 -30 0 -30 -7 0 -7 -9 -9 -24 -5 -14 3 -31 2 -38 -2 -7 -5 -23 -7 -36
-5 -13 1 -25 -4 -28 -14 -6 -13 -9 -14 -15 -3 -7 11 -11 10 -19 -2 -6 -9 -21
-14 -40 -12 -17 2 -30 -1 -30 -7 0 -7 -10 -9 -24 -5 -14 3 -31 2 -37 -2 -14
-8 -48 -14 -86 -14 -12 0 -25 -5 -28 -10 -3 -5 -19 -7 -35 -3 -20 3 -30 1 -30
-6 0 -8 -8 -10 -20 -6 -11 3 -20 2 -20 -3 0 -6 -9 -8 -20 -5 -11 3 -28 2 -37
-2 -10 -5 -24 -7 -32 -6 -7 1 -20 -1 -30 -5 -9 -4 -28 -6 -43 -5 -16 2 -28 -2
-28 -8 0 -6 -12 -8 -30 -4 -23 4 -30 2 -30 -11 0 -9 -4 -16 -10 -16 -5 0 -10
5 -10 10 0 15 -27 12 -33 -4 -3 -9 -15 -12 -31 -9 -14 3 -26 1 -26 -3 0 -9
-31 -14 -87 -14 -18 0 -33 -4 -33 -9 0 -4 -11 -6 -25 -3 -15 2 -25 0 -25 -8 0
-8 -10 -9 -29 -5 -22 5 -32 2 -40 -12 -9 -16 -12 -16 -21 -3 -9 13 -12 13 -21
-3 -8 -14 -18 -17 -40 -12 -16 4 -29 2 -29 -3 0 -5 -11 -7 -25 -4 -14 2 -25 0
-25 -7 0 -6 -11 -8 -29 -5 -16 3 -32 1 -35 -5 -4 -5 -13 -8 -21 -4 -8 3 -23 2
-32 -2 -10 -4 -30 -7 -45 -6 -16 2 -28 -2 -28 -7 0 -5 -11 -7 -25 -4 -15 2
-25 0 -25 -7 0 -7 -9 -9 -24 -5 -14 3 -31 2 -38 -2 -7 -4 -22 -9 -33 -11 -11
-1 -33 -5 -50 -8 -16 -3 -42 -5 -57 -5 -19 0 -28 -5 -28 -15 0 -8 -7 -15 -15
-15 -8 0 -15 5 -15 10 0 6 -7 10 -15 10 -8 0 -15 -7 -15 -15 0 -11 -7 -14 -24
-9 -13 3 -27 1 -30 -5 -4 -5 -13 -8 -21 -4 -8 3 -23 2 -32 -2 -10 -5 -28 -7
-40 -6 -13 1 -23 -2 -23 -8 0 -6 -12 -8 -30 -4 -17 3 -30 1 -30 -4 0 -6 -12
-8 -27 -5 -18 3 -30 -1 -40 -13 -7 -11 -13 -13 -13 -7 0 15 -27 16 -32 1 -2
-6 -30 -13 -63 -16 -99 -9 -110 -10 -115 -12 -9 -5 -65 -11 -92 -11 -18 0 -28
-5 -28 -15 0 -8 -7 -15 -15 -15 -8 0 -15 5 -15 10 0 6 -4 10 -10 10 -5 0 -10
-6 -10 -14 0 -9 -7 -12 -20 -9 -11 3 -28 2 -37 -2 -10 -5 -24 -7 -32 -6 -7 1
-20 -1 -30 -5 -9 -4 -28 -6 -43 -5 -16 2 -28 -2 -28 -7 0 -5 -11 -7 -25 -4
-14 2 -25 0 -25 -4 0 -5 -23 -10 -52 -11 -33 -1 -54 -6 -59 -16 -5 -9 -18 -13
-33 -10 -13 3 -27 0 -30 -6 -4 -6 -20 -8 -36 -4 -17 3 -30 2 -30 -3 0 -5 -12
-10 -27 -11 -56 -3 -74 -8 -84 -23 -8 -11 -12 -12 -16 -2 -7 17 -33 15 -33 -4
0 -12 -7 -14 -30 -9 -20 4 -30 3 -30 -5 0 -8 -10 -9 -29 -5 -16 3 -32 2 -35
-4 -4 -6 -13 -8 -21 -4 -8 3 -23 2 -32 -2 -10 -4 -40 -9 -68 -11 -27 -3 -53
-10 -57 -17 -6 -9 -8 -9 -8 1 0 17 -37 15 -44 -3 -3 -8 -12 -12 -21 -9 -8 3
-23 3 -32 -1 -10 -5 -28 -7 -40 -6 -11 1 -24 -2 -27 -8 -4 -6 -20 -8 -36 -4
-17 3 -30 1 -30 -4 0 -6 -15 -11 -32 -11 -18 0 -43 -1 -55 -2 -15 0 -23 -7
-24 -18 0 -10 -3 -12 -6 -4 -7 17 -30 15 -37 -4 -4 -12 -14 -14 -36 -9 -16 4
-30 3 -30 -2 0 -4 -15 -9 -32 -9 -123 -5 -149 -7 -154 -15 -3 -5 -16 -6 -30
-3 -19 5 -24 2 -25 -12 0 -11 -3 -14 -6 -6 -7 17 -40 15 -47 -3 -3 -8 -12 -12
-21 -9 -8 3 -23 3 -32 -1 -10 -4 -30 -7 -45 -6 -16 2 -28 -2 -28 -8 0 -6 -12
-8 -30 -4 -17 3 -30 1 -30 -4 0 -6 -11 -8 -23 -6 -14 3 -31 -2 -40 -11 -11
-12 -17 -13 -21 -3 -3 8 -8 7 -16 -6 -8 -12 -18 -15 -36 -11 -15 4 -24 2 -24
-6 0 -8 -10 -9 -30 -5 -20 4 -30 3 -30 -5 0 -8 -10 -9 -29 -5 -16 3 -32 2 -35
-4 -4 -6 -13 -8 -21 -4 -8 3 -23 2 -32 -2 -10 -4 -30 -7 -45 -6 -20 2 -28 -2
-28 -13 0 -9 -4 -16 -10 -16 -5 0 -10 5 -10 10 0 6 -7 10 -15 10 -8 0 -15 -6
-15 -14 0 -9 -8 -12 -24 -9 -13 3 -27 0 -30 -6 -4 -5 -13 -8 -21 -4 -8 3 -23
2 -32 -2 -10 -4 -30 -7 -45 -6 -16 2 -28 -2 -28 -8 0 -6 -12 -8 -29 -5 -16 3
-32 1 -35 -5 -4 -5 -14 -7 -23 -4 -9 4 -21 -1 -29 -12 -8 -10 -14 -13 -14 -7
0 7 -9 12 -20 12 -11 0 -20 -6 -20 -14 0 -8 -11 -13 -27 -13 -77 -1 -145 -8
-149 -15 -3 -5 -19 -6 -35 -3 -18 4 -29 3 -29 -4 0 -7 -10 -9 -24 -5 -17 4
-27 0 -35 -13 -6 -10 -11 -12 -11 -5 0 16 -37 15 -43 -2 -3 -9 -15 -12 -31 -9
-16 3 -26 1 -26 -6 0 -7 -9 -9 -24 -5 -14 3 -30 3 -37 -1 -6 -4 -36 -9 -67
-12 -31 -2 -60 -9 -64 -16 -6 -9 -8 -9 -8 1 0 6 -9 12 -20 12 -11 0 -20 -6
-20 -14 0 -13 -10 -14 -97 -15 -18 0 -33 -5 -33 -10 0 -5 -9 -7 -20 -4 -11 3
-20 0 -20 -6 0 -6 -11 -8 -29 -5 -16 3 -32 1 -35 -5 -4 -6 -20 -8 -36 -4 -23
4 -30 2 -30 -11 0 -9 -4 -16 -10 -16 -5 0 -10 5 -10 10 0 16 -27 11 -34 -6 -4
-10 -13 -13 -26 -9 -11 3 -25 3 -32 -1 -7 -5 -25 -7 -40 -5 -16 1 -28 -2 -28
-8 0 -6 -7 -8 -15 -5 -8 4 -23 3 -32 -1 -10 -4 -30 -7 -45 -6 -16 2 -28 -2
-28 -8 0 -7 -10 -9 -24 -5 -17 4 -27 0 -35 -13 -6 -10 -11 -12 -11 -5 0 18
-50 15 -50 -3 0 -11 -7 -14 -24 -9 -14 3 -31 2 -38 -2 -16 -10 -78 -12 -78 -2
0 4 -8 5 -17 2 -15 -5 -15 -4 -3 5 17 12 12 19 -16 24 -20 3 -75 37 -60 37 5
0 19 -8 30 -17 21 -18 21 -18 2 5 -11 12 -26 22 -34 22 -8 0 -12 6 -9 14 3 8
-9 27 -29 45 -19 17 -34 28 -34 24 0 -3 15 -20 33 -35 l32 -29 -36 25 c-19 14
-41 40 -48 59 -7 18 -26 42 -42 53 -16 10 -29 23 -29 28 0 4 -12 21 -27 37
-16 16 -44 45 -63 65 -19 20 -29 34 -23 30 9 -5 11 -2 7 9 -4 8 -18 23 -33 31
-14 8 -17 13 -7 9 16 -4 14 0 -7 21 -15 15 -30 38 -33 51 -4 12 -9 23 -13 23
-3 1 -19 12 -36 26 -16 15 -24 23 -18 20 9 -5 11 -2 7 8 -3 9 -14 16 -24 16
-11 0 -22 5 -26 12 -5 7 -2 8 7 3 8 -4 2 4 -14 19 -28 28 -36 43 -15 30 7 -5
8 -3 4 5 -5 7 -19 16 -32 21 -13 5 -24 15 -24 22 0 9 3 8 10 -2 6 -9 10 -10
10 -3 0 6 -12 21 -27 33 -16 12 -22 18 -15 15 11 -6 11 -3 0 14 -7 12 -18 21
-25 21 -6 0 -15 5 -19 12 -4 7 -3 8 4 4 7 -4 12 -5 12 -1 0 3 -11 10 -25 15
-14 5 -25 15 -25 22 0 9 3 8 10 -2 6 -9 10 -10 10 -3 0 6 -12 21 -27 33 -16
12 -22 18 -14 15 9 -6 9 -1 -3 17 -9 14 -13 27 -10 31 3 3 -8 13 -25 22 -17 8
-31 18 -31 21 0 3 5 2 11 -2 13 -8 -27 50 -53 77 -9 10 -19 14 -23 11 -4 -4
-6 -2 -5 3 4 22 -13 55 -28 53 -8 -2 -16 5 -18 15 -3 24 -21 45 -52 60 -14 6
-27 19 -30 27 -3 9 2 7 12 -5 17 -20 17 -20 6 2 -6 13 -23 30 -38 38 -15 9
-18 14 -8 10 16 -5 14 -1 -7 21 -14 14 -29 35 -32 45 -12 37 -128 158 -156
162 -10 2 -22 7 -26 12 -5 4 -1 5 7 1 8 -4 7 -1 -3 8 -11 8 -26 12 -35 9 -14
-4 -15 -3 -2 6 25 17 1 26 -76 27 -60 0 -74 -2 -75 -15 0 -11 -2 -12 -6 -3 -7
17 -33 15 -33 -3 0 -8 -6 -12 -14 -9 -7 3 -21 -2 -29 -11 -9 -8 -20 -15 -24
-14 -21 4 -34 -4 -75 -41 -23 -22 -46 -40 -50 -40 -5 0 -8 -6 -8 -13 0 -6 -20
-34 -46 -61 -26 -28 -43 -55 -40 -63 3 -8 2 -12 -2 -9 -4 2 -18 -12 -32 -31
-14 -20 -36 -47 -50 -62 -14 -14 -21 -23 -15 -19 5 5 14 8 19 8 6 0 -5 -11
-24 -24 -19 -13 -35 -32 -35 -41 0 -10 -7 -20 -15 -22 -13 -4 -13 -3 0 6 8 5
11 14 6 18 -5 4 -11 2 -13 -5 -3 -7 -16 -26 -29 -41 -13 -16 -24 -31 -24 -34
0 -4 -21 -28 -48 -54 -26 -26 -53 -60 -59 -75 -7 -16 -17 -28 -23 -28 -6 0
-16 -13 -21 -30 -6 -16 -15 -27 -20 -24 -5 3 -9 -1 -9 -10 0 -8 -4 -16 -8 -18
-17 -7 -63 -78 -57 -87 3 -6 0 -8 -8 -5 -9 3 -25 -11 -43 -40 -16 -25 -32 -46
-36 -46 -5 0 -8 -8 -8 -17 0 -14 -2 -15 -9 -4 -7 11 -10 9 -16 -8 -3 -11 -15
-26 -26 -31 -10 -6 -19 -16 -19 -24 0 -7 -16 -30 -36 -52 -35 -39 -65 -87 -63
-101 0 -4 -5 -9 -13 -11 -9 -2 -8 0 2 7 11 8 11 11 2 11 -15 0 -43 -60 -35
-75 4 -5 3 -7 -1 -3 -9 8 -56 -31 -56 -46 0 -6 5 -4 11 4 9 13 10 13 6 0 -2
-8 -8 -15 -13 -15 -18 -1 -54 -26 -49 -35 3 -5 -18 -32 -47 -61 -29 -29 -44
-46 -33 -39 11 7 8 1 -8 -14 -15 -15 -24 -32 -21 -38 4 -6 3 -8 -4 -4 -6 3
-20 -10 -33 -30 -12 -20 -32 -48 -45 -62 -13 -15 -33 -38 -45 -51 -14 -16 -16
-22 -6 -18 8 3 -14 -24 -50 -59 -41 -42 -62 -71 -59 -80 3 -8 2 -13 -2 -10 -4
2 -19 -9 -32 -25 -14 -16 -33 -38 -42 -49 -10 -11 -14 -20 -8 -20 10 0 -5 -19
-63 -84 -15 -17 -30 -39 -33 -49 -3 -10 -17 -22 -30 -27 -20 -8 -45 -45 -48
-72 -1 -4 -9 -13 -19 -20 -10 -7 -19 -23 -19 -34 -2 -16 -7 -19 -25 -16 -13 2
-23 0 -23 -6 0 -6 -9 -8 -20 -5 -11 3 -20 1 -20 -4 0 -6 -11 -8 -25 -5 -18 3
-25 0 -25 -12 0 -9 -4 -16 -10 -16 -5 0 -10 5 -10 10 0 6 -9 10 -20 10 -11 0
-20 -6 -20 -14 0 -9 -8 -12 -24 -9 -13 3 -27 0 -30 -6 -4 -5 -13 -8 -21 -4 -8
3 -23 2 -32 -2 -23 -10 -52 -16 -80 -15 -12 0 -27 -8 -33 -18 -8 -12 -13 -13
-16 -4 -8 17 -34 15 -34 -3 0 -11 -7 -14 -24 -9 -13 3 -27 1 -30 -5 -4 -5 -13
-8 -21 -4 -8 3 -23 2 -32 -2 -10 -4 -30 -7 -45 -6 -16 2 -28 -2 -28 -7 0 -5
-11 -7 -25 -4 -14 2 -25 0 -25 -7 0 -6 -11 -8 -30 -4 -25 4 -30 2 -31 -13 0
-11 -3 -14 -6 -6 -6 16 -43 15 -43 -2 0 -8 -11 -13 -27 -13 -16 0 -68 -3 -118
-8 -49 -4 -102 -8 -117 -7 -18 1 -28 -4 -28 -13 0 -8 -4 -15 -10 -15 -5 0 -10
5 -10 10 0 16 -27 12 -34 -5 -3 -8 -12 -12 -21 -9 -8 3 -23 3 -32 -1 -10 -5
-28 -7 -40 -6 -11 1 -24 -2 -27 -8 -4 -6 -20 -8 -36 -4 -17 3 -30 1 -30 -4 0
-5 -14 -8 -30 -5 -16 2 -30 0 -30 -5 0 -4 -18 -9 -39 -9 -22 -1 -47 -9 -56
-18 -11 -10 -25 -14 -41 -10 -15 4 -24 2 -24 -6 0 -8 -10 -9 -30 -5 -20 4 -30
3 -30 -5 0 -8 -10 -9 -29 -5 -17 3 -32 2 -36 -4 -3 -6 -17 -8 -31 -5 -17 4
-26 1 -30 -10 -7 -19 -30 -21 -38 -3 -5 10 -7 10 -12 0 -3 -7 -16 -13 -29 -13
-13 0 -26 -4 -30 -10 -3 -5 -12 -7 -20 -3 -8 3 -23 2 -32 -2 -10 -4 -30 -7
-45 -6 -16 2 -28 -2 -28 -8 0 -6 -12 -8 -29 -5 -16 3 -31 1 -35 -4 -3 -6 -16
-8 -28 -5 -14 4 -26 0 -34 -12 -8 -11 -14 -13 -14 -7 0 7 -7 12 -15 12 -8 0
-15 -6 -15 -14 0 -9 -7 -12 -20 -9 -11 3 -28 2 -37 -2 -22 -9 -59 -15 -95 -15
-16 0 -28 -4 -28 -9 0 -5 -17 -10 -37 -10 -74 0 -82 -1 -93 -19 -8 -12 -13
-13 -16 -4 -8 17 -34 15 -34 -3 0 -9 -6 -12 -15 -9 -8 4 -23 3 -32 -1 -10 -4
-30 -7 -45 -6 -16 2 -28 -2 -28 -8 0 -5 -15 -9 -32 -9 -96 2 -148 -5 -148 -18
0 -8 -4 -14 -10 -14 -5 0 -10 5 -10 10 0 13 -37 13 -42 -1 -2 -5 -28 -10 -58
-11 -30 0 -59 -3 -65 -7 -5 -3 -22 -4 -37 -2 -16 1 -28 -1 -28 -6 0 -4 -26 -9
-57 -10 -37 -1 -59 -7 -65 -16 -4 -9 -17 -12 -33 -9 -14 2 -25 0 -25 -6 0 -6
-9 -8 -20 -5 -11 3 -28 2 -37 -2 -10 -4 -30 -7 -45 -6 -16 2 -28 -2 -28 -8 0
-7 -10 -9 -25 -5 -14 3 -31 1 -39 -5 -7 -6 -21 -8 -31 -5 -12 5 -23 1 -31 -11
-8 -10 -14 -13 -14 -7 0 17 -47 15 -54 -3 -3 -8 -12 -12 -21 -9 -8 3 -23 3
-32 -1 -10 -5 -28 -7 -40 -6 -13 1 -28 -1 -35 -6 -18 -11 -88 -11 -88 0 0 5
-7 7 -15 3 -8 -3 -15 -1 -15 5 0 6 -7 9 -15 5 -9 -3 -15 0 -15 9 0 18 -36 20
-43 3 -3 -8 -6 -5 -6 6 -1 12 -6 16 -16 12 -8 -3 -15 0 -15 5 0 6 -9 9 -20 6
-11 -3 -20 -1 -20 5 0 5 -4 6 -10 3 -5 -3 -10 -1 -10 6 0 6 -8 9 -20 6 -11 -3
-20 -1 -20 5 0 5 -9 6 -20 3 -14 -5 -20 -2 -20 9 0 19 -16 21 -23 4 -3 -8 -6
-5 -6 5 -1 13 -6 17 -20 12 -11 -3 -21 0 -24 8 -3 8 -20 14 -38 15 -17 0 -36
7 -41 14 -6 10 -10 10 -18 -2 -8 -13 -10 -13 -10 2 0 12 -9 16 -34 16 -18 0
-43 5 -54 11 -11 6 -28 8 -36 5 -9 -4 -16 -1 -16 6 0 7 -7 10 -15 6 -9 -3 -15
0 -15 9 0 8 -4 15 -10 15 -5 0 -10 -4 -10 -10 0 -19 -18 -10 -23 11 -4 15 -11
20 -21 16 -9 -4 -16 -1 -16 4 0 6 -9 9 -20 6 -11 -3 -20 -1 -20 5 0 5 -9 6
-20 3 -12 -4 -20 -2 -20 5 0 7 -7 10 -15 6 -9 -3 -15 0 -15 9 0 8 -4 15 -10
15 -5 0 -10 -4 -10 -10 0 -5 -4 -10 -10 -10 -5 0 -10 7 -10 16 0 10 -6 14 -15
10 -8 -3 -15 -1 -15 3 0 13 -58 31 -75 25 -8 -4 -15 -1 -15 6 0 7 -7 10 -15 6
-10 -3 -15 1 -16 12 0 10 -3 12 -6 5 -7 -18 -23 -16 -23 3 0 10 -6 14 -15 10
-8 -3 -15 -1 -15 5 0 6 -7 8 -16 5 -8 -3 -22 1 -31 10 -9 8 -22 13 -29 10 -8
-3 -14 1 -14 9 0 18 -26 20 -33 3 -3 -8 -6 -5 -6 5 -1 14 -6 17 -21 12 -12 -4
-20 -2 -20 5 0 7 -7 10 -15 6 -8 -3 -15 -1 -15 5 0 6 -5 7 -10 4 -6 -3 -17 0
-25 7 -47 43 -60 47 -68 26 -4 -8 -6 -7 -6 3 -1 10 -10 17 -23 17 -13 0 -45 5
-73 10 -27 6 -53 8 -57 6 -5 -3 -8 2 -8 10 0 19 -26 21 -33 4 -3 -8 -6 -5 -6
6 -1 12 -6 16 -16 12 -8 -3 -15 0 -15 5 0 7 -9 9 -21 6 -12 -3 -22 0 -26 9 -3
8 -12 13 -19 10 -8 -3 -14 -1 -14 5 0 6 -7 9 -15 5 -9 -3 -15 0 -15 9 0 18
-26 20 -33 3 -3 -8 -6 -5 -6 6 -1 11 -6 16 -15 13 -8 -3 -16 -1 -18 4 -2 6
-16 12 -31 12 -15 1 -27 6 -27 11 0 4 -9 6 -20 3 -13 -3 -20 0 -20 9 0 17 -17
18 -23 2 -3 -8 -6 -5 -6 6 -1 13 -6 17 -21 13 -11 -3 -20 -1 -20 5 0 5 -4 7
-9 4 -5 -4 -11 -1 -13 4 -2 6 -13 12 -26 13 -12 0 -22 5 -22 10 0 5 -9 7 -20
4 -13 -3 -20 0 -20 9 0 17 -17 18 -23 2 -3 -8 -6 -6 -6 5 -1 15 -14 21 -48 20
-7 -1 -13 4 -13 9 0 6 -9 8 -20 5 -11 -3 -20 -1 -20 5 0 6 -7 8 -15 4 -8 -3
-15 0 -15 5 0 6 -9 9 -20 6 -14 -4 -20 0 -20 11 0 15 -2 15 -10 2 -8 -13 -10
-12 -10 4 0 12 -5 16 -16 12 -8 -3 -22 1 -31 10 -9 8 -22 13 -29 10 -8 -3 -14
-1 -14 5 0 6 -7 8 -16 5 -8 -3 -12 -2 -9 4 6 9 -42 15 -87 12 -10 -1 -18 3
-18 9 0 6 -6 9 -12 7 -7 -3 -19 2 -27 9 -8 8 -22 12 -32 10 -12 -3 -19 0 -19
9 0 8 -4 14 -10 14 -5 0 -10 -4 -10 -10 0 -5 -4 -10 -10 -10 -5 0 -10 7 -10
16 0 10 -6 14 -15 10 -8 -3 -15 -1 -15 4 0 5 -7 7 -15 4 -8 -4 -15 -1 -15 7 0
7 -3 10 -6 6 -4 -3 -13 1 -22 9 -8 9 -23 13 -33 11 -12 -3 -19 0 -19 9 0 17
-17 18 -23 2 -3 -8 -6 -5 -6 6 -1 13 -6 17 -21 13 -11 -3 -18 -2 -15 3 6 10
-42 23 -55 15 -6 -4 -10 -1 -10 5 0 7 -7 10 -15 6 -8 -3 -15 0 -15 5 0 6 -9 9
-20 6 -12 -3 -20 0 -20 8 0 15 -27 28 -41 19 -5 -3 -9 0 -9 6 0 7 -7 10 -15 6
-8 -3 -15 0 -15 5 0 6 -9 9 -20 6 -13 -3 -21 1 -25 14 -7 21 -31 25 -38 7 -3
-8 -6 -5 -6 6 -1 12 -6 16 -16 12 -8 -3 -15 0 -15 5 0 6 -9 9 -20 6 -11 -3
-20 -1 -20 5 0 6 -7 8 -15 4 -8 -3 -15 -1 -15 4 0 5 -7 7 -15 4 -8 -4 -15 -1
-15 6 0 7 -7 10 -15 6 -8 -3 -15 -1 -15 5 0 6 -7 9 -15 5 -8 -3 -15 -1 -15 5
0 6 -7 9 -15 5 -8 -3 -15 -1 -15 4 0 5 -7 7 -15 4 -8 -4 -15 -1 -15 6 0 7 -7
10 -15 6 -8 -3 -15 -1 -15 5 0 6 -7 9 -15 5 -8 -3 -15 -1 -15 5 0 6 -6 9 -12
7 -7 -3 -19 2 -27 9 -8 8 -22 12 -32 10 -11 -3 -19 -1 -19 5 0 5 -9 6 -20 3
-12 -4 -20 -2 -20 5 0 6 -6 10 -12 8 -7 -3 -19 1 -26 9 -7 7 -22 13 -33 13
-10 0 -19 6 -19 13 0 8 -4 7 -10 -3 -8 -13 -10 -12 -10 4 0 13 -5 17 -20 13
-11 -3 -20 -1 -20 5 0 6 -6 8 -14 5 -8 -3 -16 -1 -18 4 -2 6 -16 12 -31 12
-15 1 -27 8 -27 15 0 6 -4 12 -9 12 -5 0 -12 -6 -14 -12 -3 -8 -6 -5 -6 6 -1
11 -6 16 -15 13 -8 -3 -16 -1 -18 4 -2 6 -16 12 -31 12 -15 1 -27 6 -27 10 0
5 -8 7 -18 5 -9 -2 -25 5 -34 15 -9 11 -29 20 -43 21 -14 0 -25 5 -25 10 0 4
-9 6 -20 3 -11 -3 -20 -1 -20 5 0 6 -7 8 -15 4 -8 -3 -15 -1 -15 4 0 6 -6 10
-14 10 -8 0 -22 7 -31 17 -14 14 -18 14 -26 2 -6 -10 -11 -11 -16 -3 -10 14
-73 35 -84 28 -5 -3 -9 0 -9 6 0 7 -7 10 -15 6 -9 -3 -15 0 -15 9 0 18 -16 20
-23 3 -3 -8 -6 -7 -6 4 -1 18 -34 33 -51 23 -5 -3 -10 -1 -10 5 0 6 -6 10 -12
9 -32 -4 -58 2 -73 18 -14 14 -18 14 -26 2 -7 -11 -9 -10 -9 5 0 12 -5 16 -15
12 -8 -3 -15 0 -15 5 0 6 -8 9 -18 7 -10 -3 -24 1 -31 9 -7 8 -19 12 -27 9 -8
-3 -14 -1 -14 5 0 6 -7 9 -15 5 -9 -3 -15 0 -15 9 0 18 -26 20 -33 3 -3 -8 -6
-7 -6 4 -1 18 -34 33 -51 23 -5 -3 -10 -1 -10 5 0 7 -7 10 -15 6 -8 -3 -15 -1
-15 5 0 6 -8 9 -18 7 -9 -2 -25 5 -35 16 -15 17 -20 18 -27 6 -8 -12 -10 -12
-10 4 0 12 -5 16 -15 12 -8 -3 -15 -1 -15 5 0 6 -8 8 -19 4 -12 -3 -21 0 -25
10 -4 11 -13 14 -26 10 -14 -5 -20 -2 -20 9 0 19 -16 21 -23 4 -3 -8 -6 -5 -6
6 -1 13 -6 16 -18 12 -9 -4 -19 -2 -23 4 -3 5 -25 11 -48 13 -23 1 -42 6 -42
10 0 5 -9 5 -20 2 -14 -5 -20 -2 -20 9 0 14 -12 20 -32 17 -5 0 -8 4 -8 10 0
6 -9 9 -20 6 -11 -3 -20 -1 -20 5 0 5 -4 7 -9 4 -5 -4 -11 -1 -13 5 -2 6 -16
12 -31 12 -15 1 -27 8 -27 15 0 6 -7 12 -15 12 -8 0 -15 -6 -15 -12 0 -9 -3
-9 -9 1 -5 8 -22 14 -39 15 -17 0 -27 5 -24 10 3 5 -2 7 -11 3 -10 -4 -17 -2
-17 4 0 6 -9 9 -20 6 -11 -3 -20 -1 -20 5 0 6 -7 8 -15 4 -9 -3 -15 0 -15 9 0
13 -18 20 -42 16 -5 0 -8 3 -8 9 0 5 -7 7 -15 4 -8 -4 -15 -1 -15 6 0 7 -7 10
-15 6 -8 -3 -15 0 -15 5 0 6 -9 9 -20 6 -14 -4 -20 0 -20 11 0 15 -2 15 -10 2
-8 -13 -10 -12 -10 3 0 14 -5 17 -20 12 -12 -4 -20 -2 -20 5 0 7 -7 10 -15 6
-8 -3 -15 -1 -15 5 0 6 -9 8 -20 4 -11 -4 -20 -2 -20 4 0 6 -11 13 -25 17 -14
3 -25 10 -25 15 0 14 -28 11 -33 -3 -3 -8 -6 -5 -6 5 -1 10 -7 17 -13 14 -7
-2 -17 2 -23 9 -5 7 -31 15 -57 16 -30 2 -48 8 -48 16 0 6 -6 12 -14 12 -8 0
-17 -6 -19 -12 -3 -8 -6 -7 -6 4 -1 18 -34 33 -51 23 -5 -3 -10 -1 -10 5 0 7
-7 10 -15 6 -8 -3 -15 0 -15 5 0 6 -9 9 -20 6 -11 -3 -20 -1 -20 5 0 6 -7 8
-14 5 -10 -4 -13 -1 -9 9 5 13 -8 18 -45 17 -6 -1 -12 4 -12 9 0 6 -7 8 -15 4
-8 -3 -15 -1 -15 5 0 6 -7 9 -15 5 -8 -3 -15 -1 -15 5 0 6 -6 9 -14 6 -8 -3
-16 -1 -18 5 -2 6 -18 11 -36 12 -18 0 -32 5 -32 10 0 4 -7 6 -15 2 -8 -3 -15
0 -15 5 0 6 -8 9 -18 7 -10 -3 -23 1 -31 9 -7 8 -21 11 -32 8 -14 -5 -19 -2
-19 12 0 15 -2 16 -10 3 -8 -13 -10 -12 -10 4 0 13 -5 17 -19 13 -12 -3 -22 1
-25 10 -4 9 -13 12 -26 8 -12 -4 -20 -2 -20 5 0 7 -7 10 -15 6 -8 -3 -15 -1
-15 5 0 6 -9 8 -20 4 -14 -5 -20 -2 -20 9 0 19 -16 21 -23 4 -3 -8 -6 -6 -6 4
-1 19 -62 41 -87 31 -8 -3 -14 0 -14 7 0 7 -7 10 -15 6 -8 -3 -15 -1 -15 4 0
5 -7 7 -15 4 -8 -4 -15 -1 -15 6 0 7 -7 10 -16 6 -10 -4 -13 -2 -8 6 5 8 2 9
-9 5 -10 -4 -17 -2 -17 4 0 6 -7 9 -15 5 -8 -3 -15 -1 -15 5 0 6 -9 8 -20 4
-12 -4 -20 -2 -20 5 0 7 -7 10 -15 6 -9 -3 -15 0 -15 9 0 8 -4 15 -10 15 -5 0
-10 -4 -10 -10 0 -5 -4 -10 -10 -10 -5 0 -10 6 -10 14 0 16 -27 29 -41 20 -5
-3 -9 0 -9 7 0 6 -8 9 -20 6 -11 -3 -20 -1 -20 5 0 6 -7 8 -15 4 -8 -3 -15 -1
-15 5 0 6 -7 9 -15 5 -9 -3 -15 0 -15 9 0 15 -67 38 -82 29 -4 -3 -8 -1 -8 4
0 5 -11 10 -25 11 -14 1 -36 3 -50 4 -14 1 -25 8 -25 15 0 6 -4 12 -9 12 -5 0
-12 -6 -14 -12 -3 -8 -6 -6 -6 5 -1 15 -14 21 -48 20 -7 -1 -13 4 -13 9 0 6
-7 8 -15 4 -8 -3 -15 -1 -15 5 0 6 -7 9 -15 5 -9 -3 -15 0 -15 9 0 18 -26 20
-33 3 -3 -8 -6 -5 -6 6 -1 12 -6 16 -16 12 -8 -3 -15 0 -15 5 0 6 -9 9 -20 6
-12 -3 -23 1 -28 9 -4 8 -22 16 -40 17 -18 1 -32 8 -32 15 0 6 -7 12 -15 12
-8 0 -15 -6 -15 -12 0 -9 -3 -10 -8 -2 -9 14 -72 35 -83 28 -5 -3 -9 0 -9 6 0
6 -8 10 -17 8 -10 -2 -25 4 -34 13 -8 10 -28 19 -45 21 -16 2 -32 7 -35 11 -4
5 -18 10 -33 10 -14 1 -26 6 -26 11 0 4 -9 6 -20 3 -11 -3 -20 -1 -20 5 0 6
-7 8 -15 4 -9 -3 -15 0 -15 9 0 18 -26 20 -33 3 -3 -8 -6 -6 -6 4 -1 11 -6 15
-16 12 -8 -4 -15 -1 -15 6 0 7 -7 10 -15 6 -8 -3 -15 -1 -15 5 0 6 -9 8 -20 4
-12 -4 -20 -2 -20 5 0 7 -7 10 -15 6 -9 -3 -15 0 -15 9 0 8 -4 15 -10 15 -5 0
-10 -4 -10 -10 0 -5 -4 -10 -10 -10 -5 0 -10 7 -10 16 0 10 -6 14 -15 10 -8
-3 -15 -2 -15 3 0 5 -11 9 -25 10 -14 1 -36 3 -50 4 -14 1 -25 5 -25 10 0 4
-7 7 -15 7 -8 0 -15 5 -15 10 0 14 -27 12 -33 -2 -3 -8 -6 -5 -6 6 -1 12 -6
16 -16 12 -8 -3 -15 0 -15 5 0 6 -9 9 -20 6 -11 -3 -23 -1 -26 5 -3 5 -15 8
-25 5 -11 -3 -19 -1 -19 5 0 6 -9 8 -20 5 -11 -3 -20 -2 -20 2 0 6 -157 7
-170 1 -3 -1 -13 -2 -22 -1 -10 1 -18 -3 -18 -9 0 -6 -4 -9 -9 -6 -5 4 -21 2
-36 -4 -34 -13 -87 -67 -71 -74 6 -2 3 -5 -8 -5 -13 -1 -17 -6 -13 -21 3 -11
1 -20 -4 -20 -5 0 -9 -13 -9 -30 0 -16 4 -30 10 -30 5 0 7 -7 4 -15 -4 -9 0
-15 10 -15 9 0 16 -4 16 -10 0 -5 -4 -10 -10 -10 -5 0 -10 -4 -10 -10 0 -5 7
-10 16 -10 8 0 12 -4 9 -10 -3 -5 -1 -10 5 -10 7 0 9 -8 5 -20 -4 -11 -2 -20
4 -20 6 0 8 -7 5 -15 -4 -8 -1 -15 6 -15 7 0 9 -8 5 -21 -5 -14 -4 -19 4 -15
7 5 9 1 5 -8 -4 -11 0 -16 10 -16 19 0 21 -16 4 -23 -8 -3 -6 -6 4 -6 11 -1
15 -6 12 -16 -4 -8 -1 -15 6 -15 7 0 9 -8 5 -19 -3 -11 0 -25 8 -32 8 -8 12
-21 9 -31 -2 -10 1 -18 7 -18 5 0 8 -7 5 -15 -4 -10 0 -15 12 -15 16 0 16 -2
4 -10 -12 -7 -11 -12 6 -27 11 -10 18 -26 16 -35 -2 -10 1 -18 7 -18 6 0 8 -7
5 -15 -4 -8 -2 -15 4 -15 6 0 8 -10 4 -22 -3 -14 -1 -19 6 -14 8 5 10 2 6 -8
-3 -9 -1 -16 5 -16 6 0 8 -7 5 -15 -4 -8 -1 -15 5 -15 6 0 8 -7 5 -15 -4 -8
-1 -15 5 -15 6 0 8 -7 5 -15 -4 -8 -1 -15 5 -15 6 0 8 -7 5 -15 -4 -8 -2 -15
4 -15 6 0 8 -9 5 -20 -4 -15 0 -20 13 -20 16 0 17 -2 4 -10 -9 -6 -10 -10 -3
-10 14 0 21 -19 28 -75 2 -22 9 -41 14 -43 6 -2 7 -10 4 -18 -3 -8 1 -14 11
-14 9 0 16 -4 16 -10 0 -5 -4 -10 -10 -10 -5 0 -10 -4 -10 -10 0 -5 6 -10 13
-10 7 0 14 -10 14 -22 1 -13 7 -24 12 -26 5 -2 7 -10 4 -18 -3 -8 -1 -14 5
-14 6 0 8 -8 5 -18 -3 -12 3 -22 19 -29 13 -7 17 -12 11 -12 -18 -1 -16 -31 1
-31 8 0 14 -6 13 -12 -1 -37 4 -58 13 -53 6 3 7 -1 4 -9 -3 -9 -2 -16 4 -16 6
0 8 -9 5 -20 -4 -15 0 -20 13 -20 16 0 16 -2 4 -10 -12 -7 -11 -12 9 -29 12
-11 20 -25 16 -30 -3 -6 -2 -11 4 -11 6 0 8 -7 5 -15 -4 -8 -1 -15 6 -15 7 0
10 -7 6 -15 -3 -8 -1 -15 5 -15 6 0 7 -4 4 -10 -3 -5 1 -10 9 -10 19 0 21 -17
4 -22 -9 -3 -8 -9 4 -21 9 -10 14 -25 11 -37 -3 -11 0 -20 6 -20 5 0 8 -7 5
-15 -4 -8 -2 -15 4 -15 6 0 8 -10 4 -22 -3 -14 -1 -19 6 -14 8 5 10 2 6 -8 -4
-11 0 -16 12 -17 11 0 14 -3 7 -6 -18 -7 -16 -33 2 -33 8 0 12 -6 9 -14 -3 -7
1 -20 9 -27 7 -8 12 -20 9 -27 -2 -6 1 -12 7 -12 6 0 8 -6 5 -14 -3 -7 1 -20
9 -27 7 -8 12 -20 9 -27 -2 -6 2 -12 8 -12 7 0 9 -8 5 -20 -4 -12 -2 -20 5
-20 6 0 8 -5 5 -10 -3 -5 -1 -10 5 -10 7 0 9 -8 5 -20 -3 -11 -2 -20 3 -20 5
0 10 -6 9 -12 -1 -43 4 -60 17 -55 10 4 13 1 9 -9 -3 -7 -1 -14 5 -14 6 0 8
-9 5 -20 -3 -11 0 -20 6 -20 5 0 8 -7 5 -15 -4 -8 1 -17 9 -21 9 -3 13 -12 10
-20 -3 -9 2 -14 13 -15 11 0 14 -3 7 -6 -19 -7 -16 -27 6 -42 11 -8 16 -21 14
-32 -3 -11 0 -19 6 -19 5 0 8 -6 5 -14 -3 -7 2 -20 10 -29 9 -9 13 -23 10 -31
-4 -11 0 -16 12 -17 11 0 14 -3 7 -6 -17 -6 -17 -33 0 -33 8 0 14 -6 15 -12 4
-52 11 -73 28 -79 10 -4 13 -8 7 -8 -18 -1 -16 -31 2 -31 9 0 12 -6 9 -15 -4
-8 -1 -15 5 -15 6 0 8 -7 5 -15 -4 -8 -1 -15 5 -15 6 0 8 -7 5 -15 -4 -8 -2
-15 4 -15 6 0 8 -9 5 -20 -3 -11 -1 -20 5 -20 5 0 10 -6 9 -12 -1 -34 4 -48
18 -48 9 0 12 -6 9 -15 -4 -8 -1 -15 5 -15 6 0 8 -6 5 -14 -3 -8 2 -28 10 -45
9 -17 16 -34 15 -38 -4 -21 2 -33 17 -33 11 0 14 -6 9 -20 -3 -11 -3 -20 2
-20 4 0 9 -12 10 -27 0 -15 6 -29 12 -31 5 -2 7 -10 4 -18 -3 -8 0 -14 7 -14
6 0 8 -5 5 -10 -9 -15 4 -50 20 -50 8 0 11 -7 8 -20 -3 -11 0 -20 6 -20 5 0 8
-6 5 -14 -3 -7 1 -20 9 -27 7 -8 12 -20 9 -27 -2 -6 5 -12 15 -13 10 0 13 -3
6 -6 -18 -7 -16 -23 3 -23 8 0 12 -5 9 -10 -3 -5 -2 -10 4 -10 6 0 8 -7 5 -15
-4 -8 -2 -15 4 -15 5 0 10 -11 11 -25 1 -14 1 -36 2 -50 1 -16 7 -25 18 -26
10 0 11 -2 4 -6 -18 -7 -16 -23 3 -23 10 0 14 -6 10 -15 -3 -8 -1 -15 4 -15 5
0 7 -7 4 -15 -4 -8 -1 -15 5 -15 6 0 8 -6 5 -14 -3 -8 1 -20 9 -27 8 -7 12
-21 9 -31 -3 -13 1 -18 14 -18 16 0 16 -2 4 -10 -12 -7 -11 -12 6 -27 12 -10
19 -24 17 -30 -3 -7 0 -13 5 -13 6 0 8 -8 5 -19 -2 -10 2 -24 10 -32 7 -8 12
-20 9 -27 -2 -6 3 -12 12 -12 9 0 16 -4 16 -10 0 -5 -4 -10 -10 -10 -5 0 -10
-4 -10 -10 0 -5 6 -10 13 -10 7 0 14 -10 15 -22 2 -13 4 -32 6 -43 2 -11 4
-26 5 -32 0 -7 9 -13 19 -14 10 0 12 -3 5 -6 -17 -6 -16 -23 1 -23 9 0 12 -7
9 -20 -3 -12 1 -22 10 -26 9 -3 13 -13 10 -25 -3 -11 0 -19 6 -19 7 0 10 -4 7
-9 -9 -14 4 -41 20 -41 8 0 14 -4 14 -10 0 -5 -4 -10 -10 -10 -5 0 -10 -4 -10
-10 0 -5 6 -10 14 -10 9 0 12 -7 9 -20 -3 -12 0 -20 6 -20 7 0 10 -4 6 -9 -3
-5 2 -16 10 -24 8 -9 12 -22 9 -30 -3 -8 2 -22 11 -31 9 -9 12 -16 6 -16 -6 0
-11 -7 -11 -15 0 -8 7 -15 16 -15 8 0 12 -5 9 -10 -3 -6 1 -17 9 -25 8 -9 13
-22 10 -30 -4 -8 -1 -15 6 -15 6 0 8 -5 5 -10 -9 -15 4 -50 20 -50 8 0 11 -7
8 -20 -3 -11 0 -20 6 -20 5 0 8 -6 5 -14 -3 -7 2 -16 11 -20 11 -4 14 -12 10
-26 -4 -12 -2 -20 5 -20 6 0 8 -5 5 -10 -10 -15 5 -50 20 -50 9 0 12 -6 9 -15
-4 -8 -1 -15 6 -15 7 0 9 -8 5 -20 -3 -11 -3 -20 2 -20 5 0 9 -10 10 -22 1
-11 6 -24 10 -27 4 -3 9 -17 11 -31 1 -14 7 -26 12 -28 5 -2 6 -10 3 -18 -3
-8 0 -14 6 -14 6 0 8 -7 5 -15 -4 -8 -1 -15 6 -15 6 0 8 -4 5 -10 -3 -5 -2
-10 3 -10 6 0 8 -9 5 -20 -3 -12 0 -20 6 -20 7 0 10 -4 7 -9 -9 -14 5 -41 21
-41 10 0 12 -6 8 -20 -3 -11 -2 -20 3 -20 6 0 8 -9 5 -20 -3 -12 0 -20 6 -20
7 0 10 -4 6 -9 -3 -5 2 -16 10 -24 8 -9 12 -22 9 -30 -3 -8 1 -21 9 -28 7 -8
12 -20 9 -27 -2 -6 1 -12 7 -12 6 0 8 -7 5 -15 -4 -8 -1 -15 5 -15 6 0 8 -7 5
-15 -4 -8 -1 -15 5 -15 6 0 8 -7 5 -15 -4 -10 0 -15 12 -16 11 0 14 -3 7 -6
-19 -7 -16 -27 6 -42 11 -8 16 -21 14 -32 -3 -11 0 -19 6 -19 5 0 8 -7 5 -15
-4 -8 -1 -15 6 -15 6 0 8 -4 5 -10 -3 -5 -1 -10 5 -10 7 0 10 -7 6 -15 -3 -10
1 -15 12 -15 15 0 15 -2 2 -10 -10 -7 -12 -12 -4 -17 6 -5 14 -18 18 -30 4
-13 12 -23 17 -23 6 0 7 -9 4 -20 -4 -12 -2 -20 5 -20 6 0 8 -4 5 -10 -3 -5
-2 -10 3 -10 6 0 8 -9 5 -20 -4 -15 0 -20 13 -20 16 0 17 -2 4 -11 -11 -8 -12
-12 -2 -16 6 -2 12 -11 12 -19 0 -8 4 -14 10 -14 5 0 7 -7 4 -15 -4 -8 -2 -15
4 -15 6 0 8 -8 5 -19 -2 -10 3 -25 12 -35 9 -9 12 -16 6 -16 -6 0 -11 -4 -11
-10 0 -5 7 -10 15 -10 9 0 12 -6 9 -15 -4 -8 1 -17 10 -21 11 -4 14 -13 11
-25 -4 -11 -2 -19 3 -19 5 0 10 -6 9 -12 -1 -35 5 -48 21 -49 10 0 12 -3 5 -6
-17 -6 -16 -23 1 -23 8 0 14 -11 15 -27 0 -16 0 -38 1 -50 0 -13 5 -23 10 -23
5 0 6 -7 3 -17 -4 -10 -2 -14 4 -10 7 5 9 0 6 -13 -4 -15 0 -20 13 -20 14 0
16 -2 6 -9 -10 -6 -9 -10 7 -14 12 -3 21 -11 21 -19 0 -10 -3 -9 -10 2 -6 9
-10 10 -10 3 0 -6 7 -18 15 -26 8 -8 12 -17 9 -20 -11 -11 8 -47 24 -48 11 0
12 -3 5 -6 -18 -7 -16 -23 3 -23 11 0 14 -6 9 -20 -4 -12 -2 -20 5 -20 6 0 8
-5 5 -10 -3 -6 -2 -10 3 -10 6 0 8 -9 5 -20 -3 -11 -1 -20 5 -20 5 0 10 -6 9
-12 -1 -35 5 -48 21 -49 10 0 12 -3 5 -6 -18 -7 -16 -23 2 -23 9 0 12 -6 9
-15 -4 -8 1 -17 9 -21 9 -3 13 -13 10 -25 -3 -10 0 -19 6 -19 6 0 8 -7 4 -17
-4 -11 -3 -14 5 -9 8 5 10 2 6 -8 -4 -11 0 -16 10 -16 19 0 21 -16 4 -24 -11
-5 -11 -7 0 -12 6 -3 12 -12 12 -20 0 -9 3 -13 8 -11 4 3 8 -5 9 -16 4 -54 9
-77 15 -77 4 0 5 -7 2 -15 -4 -10 0 -15 12 -16 11 0 14 -3 7 -6 -19 -7 -16
-31 5 -37 10 -3 18 -15 19 -26 1 -11 3 -31 4 -45 1 -15 8 -25 18 -26 10 0 11
-2 4 -6 -17 -6 -16 -23 1 -23 9 0 12 -7 9 -19 -2 -10 2 -24 10 -32 7 -8 12
-20 9 -27 -2 -6 2 -12 8 -12 7 0 10 -7 6 -15 -8 -22 3 -45 23 -46 10 0 11 -2
4 -6 -20 -7 -15 -30 6 -36 14 -3 18 -11 14 -26 -3 -12 -1 -21 6 -21 5 0 8 -6
5 -14 -3 -7 1 -20 9 -27 7 -8 12 -20 9 -27 -2 -6 5 -12 15 -13 10 0 13 -3 6
-6 -18 -7 -16 -33 3 -33 8 0 12 -5 9 -10 -3 -5 -2 -10 4 -10 6 0 8 -7 5 -15
-4 -8 -1 -15 6 -15 7 0 9 -8 5 -19 -3 -11 1 -25 10 -34 8 -9 12 -23 9 -31 -4
-11 0 -16 12 -16 16 0 17 -2 4 -10 -13 -8 -12 -10 4 -10 12 0 16 -5 12 -15 -3
-8 -1 -15 4 -15 5 0 7 -7 4 -15 -4 -8 -2 -15 4 -15 6 0 8 -9 5 -20 -4 -14 1
-22 18 -29 13 -5 18 -10 12 -10 -15 -1 -18 -31 -3 -31 6 0 10 -13 10 -30 0
-16 4 -30 10 -30 5 0 7 -7 4 -15 -4 -8 -2 -15 4 -15 6 0 8 -8 5 -19 -2 -10 3
-25 11 -34 12 -12 13 -17 3 -21 -9 -5 -9 -7 1 -12 6 -3 12 -12 12 -20 0 -9 4
-12 10 -9 6 3 7 -1 4 -9 -3 -9 -1 -16 6 -16 7 0 9 -8 5 -20 -4 -11 -2 -20 4
-20 6 0 7 -7 4 -17 -4 -11 -3 -14 5 -9 8 5 10 2 6 -8 -4 -11 0 -16 12 -16 16
0 17 -2 4 -11 -11 -8 -12 -12 -2 -16 6 -2 12 -11 12 -19 0 -8 4 -14 10 -14 5
0 7 -7 4 -15 -4 -8 -2 -15 4 -15 6 0 8 -9 5 -20 -3 -12 0 -20 6 -20 7 0 9 -4
6 -10 -3 -6 -2 -10 3 -10 6 0 8 -8 5 -19 -3 -11 5 -28 21 -44 15 -16 23 -32
20 -41 -3 -9 -1 -16 5 -16 6 0 8 -7 5 -15 -4 -8 -1 -15 6 -15 7 0 10 -7 6 -15
-3 -10 1 -15 12 -15 15 0 15 -2 2 -10 -10 -7 -12 -12 -4 -17 6 -5 14 -18 18
-30 4 -13 11 -23 16 -23 4 0 6 -9 3 -20 -3 -11 -1 -20 5 -20 5 0 10 -6 9 -12
-1 -35 5 -48 21 -48 14 0 15 -2 2 -10 -13 -8 -13 -10 2 -10 11 0 15 -6 11 -19
-2 -10 2 -25 10 -32 8 -7 12 -21 9 -31 -2 -10 0 -18 5 -18 8 0 12 -18 14 -67
1 -12 7 -24 14 -27 8 -3 11 -13 8 -25 -3 -12 -1 -21 6 -21 5 0 8 -7 5 -15 -4
-8 -2 -15 4 -15 6 0 8 -8 5 -19 -2 -10 3 -25 11 -34 9 -8 16 -20 16 -26 0 -6
4 -11 10 -11 5 0 6 -7 3 -17 -4 -10 -2 -14 4 -10 7 5 9 0 6 -13 -3 -11 0 -20
6 -20 5 0 8 -7 5 -15 -4 -8 -1 -15 6 -15 6 0 8 -5 5 -10 -10 -16 5 -50 21 -50
8 0 12 -5 9 -10 -3 -6 1 -17 9 -25 8 -9 13 -22 10 -30 -4 -8 -1 -15 6 -15 7 0
10 -7 6 -15 -8 -22 3 -45 23 -46 10 0 11 -2 4 -6 -18 -7 -16 -23 2 -23 9 0 12
-6 9 -15 -4 -8 -1 -15 5 -15 6 0 8 -7 5 -15 -4 -8 -1 -15 5 -15 6 0 8 -7 5
-15 -4 -8 -1 -15 6 -15 6 0 8 -5 5 -10 -10 -17 5 -50 23 -51 11 0 12 -3 5 -6
-18 -7 -16 -33 2 -33 9 0 12 -6 9 -15 -4 -8 -1 -15 6 -15 6 0 8 -4 5 -10 -3
-5 -2 -10 4 -10 6 0 8 -7 5 -15 -4 -8 -1 -15 5 -15 6 0 8 -6 5 -14 -3 -7 3
-21 12 -31 10 -9 17 -30 17 -46 0 -16 4 -29 9 -29 5 0 6 -4 3 -10 -3 -6 -2
-10 3 -10 5 0 9 -8 9 -17 -1 -61 4 -83 18 -83 9 0 12 -6 9 -15 -4 -8 -2 -15 4
-15 6 0 8 -9 5 -20 -3 -12 0 -20 6 -20 7 0 9 -4 6 -10 -3 -5 -2 -10 4 -10 6 0
8 -7 5 -15 -4 -8 -1 -15 5 -15 6 0 10 -3 10 -7 -3 -21 3 -33 17 -33 11 0 14
-6 9 -20 -4 -11 -2 -20 4 -20 6 0 8 -7 5 -15 -4 -8 -1 -15 6 -15 7 0 10 -7 6
-15 -3 -8 -1 -15 4 -15 5 0 7 -7 4 -15 -4 -8 -1 -15 6 -15 6 0 8 -5 5 -10 -9
-15 4 -50 20 -50 8 0 11 -7 8 -20 -3 -11 0 -20 6 -20 5 0 8 -7 5 -15 -4 -8 -1
-15 5 -15 6 0 8 -7 5 -15 -4 -8 -2 -15 3 -15 5 0 9 -9 10 -21 1 -11 10 -28 21
-37 10 -10 17 -23 15 -29 -3 -7 1 -13 7 -13 7 0 9 -8 5 -20 -4 -12 -2 -20 5
-20 6 0 8 -5 5 -10 -3 -5 -1 -10 5 -10 7 0 9 -8 5 -20 -5 -15 -2 -20 12 -20
15 0 16 -2 3 -10 -11 -7 -12 -12 -3 -18 13 -9 28 -59 24 -84 -1 -10 3 -18 9
-18 6 0 8 -4 5 -10 -3 -6 -1 -10 5 -10 6 0 8 -5 5 -10 -3 -6 2 -10 12 -10 15
0 16 -2 3 -10 -11 -7 -12 -12 -3 -18 13 -9 28 -59 24 -84 -1 -10 2 -18 8 -18
6 0 7 -7 4 -17 -4 -11 -3 -14 5 -9 8 5 10 2 6 -8 -4 -11 0 -16 10 -16 9 0 16
-4 16 -10 0 -5 -4 -10 -10 -10 -5 0 -10 -4 -10 -10 0 -5 6 -10 14 -10 9 0 12
-7 9 -19 -2 -10 2 -24 10 -32 7 -8 12 -20 9 -27 -2 -6 1 -12 8 -12 6 0 9 -4 6
-9 -9 -14 4 -41 20 -41 8 0 11 -6 8 -15 -4 -8 -2 -15 2 -15 5 0 10 -12 11 -27
0 -15 6 -29 12 -31 5 -2 7 -10 4 -18 -3 -8 0 -14 7 -14 6 0 8 -5 5 -10 -9 -15
4 -50 20 -50 8 0 11 -7 8 -20 -3 -11 0 -20 6 -20 5 0 8 -7 5 -15 -4 -8 -1 -15
6 -15 6 0 8 -4 5 -10 -3 -5 -1 -10 5 -10 7 0 10 -7 6 -15 -3 -8 -1 -15 5 -15
6 0 7 -5 4 -10 -10 -16 5 -50 21 -50 8 0 12 -5 9 -10 -3 -6 -1 -10 5 -10 7 0
9 -8 5 -20 -3 -11 -3 -20 2 -20 5 0 10 -12 11 -27 1 -15 7 -30 13 -34 8 -4 7
-8 -2 -13 -11 -5 -11 -7 -1 -12 6 -3 12 -15 12 -25 0 -11 4 -17 10 -14 6 3 7
-1 4 -9 -3 -9 -2 -16 4 -16 6 0 8 -9 5 -20 -3 -11 -1 -20 4 -20 5 0 10 -10 10
-22 1 -13 7 -24 12 -26 5 -2 7 -10 4 -18 -3 -8 -1 -14 5 -14 6 0 8 -9 5 -20
-3 -12 1 -22 10 -26 9 -3 13 -12 10 -20 -3 -8 0 -14 7 -14 7 0 10 -7 6 -15 -8
-21 3 -45 20 -45 8 0 14 -4 14 -10 0 -5 -4 -10 -10 -10 -5 0 -10 -4 -10 -10 0
-5 7 -10 15 -10 9 0 12 -6 9 -15 -4 -8 -1 -15 6 -15 7 0 9 -8 5 -20 -4 -13 -1
-22 8 -26 9 -3 13 -13 10 -25 -3 -10 0 -19 6 -19 5 0 8 -7 5 -15 -4 -10 0 -15
12 -16 11 0 14 -3 7 -6 -18 -7 -16 -23 2 -23 9 0 12 -6 9 -15 -4 -8 -2 -15 4
-15 5 0 10 -6 9 -13 -1 -31 4 -48 12 -43 5 4 7 -3 4 -14 -4 -15 0 -20 13 -21
11 0 14 -3 7 -6 -17 -6 -16 -23 1 -23 9 0 12 -7 9 -19 -2 -10 2 -24 10 -32 7
-8 12 -20 9 -27 -2 -6 1 -12 7 -12 6 0 8 -7 5 -15 -4 -8 -1 -15 5 -15 6 0 8
-7 5 -15 -3 -8 -2 -20 2 -27 5 -7 9 -17 9 -23 2 -18 23 -63 33 -69 6 -3 22 -7
35 -8 15 -1 28 -10 30 -20 5 -19 53 -42 68 -32 5 3 9 0 9 -5 0 -6 6 -11 14
-11 8 0 17 -6 19 -12 4 -10 8 -10 15 0 7 11 10 10 16 -3 4 -11 13 -15 26 -12
11 3 20 1 20 -5 0 -6 11 -7 25 -4 16 4 25 2 25 -5 0 -8 13 -10 40 -6 22 3 43
1 46 -4 3 -5 29 -9 57 -9 121 0 170 -5 174 -17 5 -15 63 -18 63 -3 0 13 27 13
32 0 2 -5 54 -11 118 -13 64 -2 121 -6 128 -10 6 -4 33 -8 59 -8 26 0 75 -2
108 -5 33 -3 87 -6 119 -8 34 -2 62 -8 64 -14 5 -16 69 -15 74 0 3 9 10 7 23
-6 15 -15 28 -17 71 -12 32 4 55 2 59 -4 4 -6 28 -11 53 -11 102 0 168 -5 179
-12 7 -4 34 -8 60 -7 94 0 157 -7 161 -18 5 -15 82 -16 82 -2 0 15 19 12 37
-5 10 -10 34 -16 67 -16 92 1 151 -4 163 -12 7 -4 34 -8 60 -7 95 1 187 -8
191 -19 5 -14 32 -15 32 -1 0 15 40 12 57 -5 9 -10 33 -15 66 -15 54 0 143 -4
307 -15 52 -4 126 -8 165 -9 40 -2 71 -8 73 -15 5 -14 62 -15 62 0 0 6 8 3 17
-6 13 -14 28 -16 69 -11 35 4 55 2 60 -5 4 -8 26 -10 60 -6 30 3 56 1 60 -4 3
-5 27 -10 52 -10 90 0 157 -5 175 -13 10 -5 38 -6 63 -2 34 4 46 2 50 -9 8
-19 94 -21 94 -2 0 7 5 5 10 -4 8 -14 27 -17 92 -17 76 -1 183 -7 328 -19 30
-2 79 -5 109 -6 32 -2 56 -8 59 -15 4 -14 82 -16 82 -2 0 16 27 12 34 -5 4
-11 20 -15 58 -15 29 0 76 -2 103 -5 60 -7 157 -14 239 -18 36 -1 61 -7 64
-15 4 -14 62 -16 62 -2 0 15 19 12 37 -6 10 -10 34 -15 72 -15 31 1 79 -2 106
-4 120 -13 230 -22 350 -29 33 -3 61 -9 63 -15 5 -15 59 -14 65 2 4 9 8 8 16
-3 7 -10 32 -16 78 -18 146 -7 169 -9 183 -15 8 -3 33 -6 55 -7 22 0 72 -3
110 -6 39 -2 93 -6 120 -7 28 -2 57 -6 65 -10 8 -3 31 -7 50 -7 68 0 155 -8
173 -15 9 -4 37 -4 61 -1 28 4 47 3 51 -4 4 -6 28 -11 53 -11 129 0 175 -5
179 -16 5 -15 63 -18 63 -3 0 15 38 12 43 -2 2 -8 25 -14 53 -16 27 -2 76 -6
109 -8 33 -3 92 -7 130 -9 243 -11 290 -15 293 -25 5 -13 52 -13 52 0 0 16 37
11 44 -5 4 -12 20 -16 58 -16 29 0 82 -2 118 -5 36 -3 88 -6 115 -7 28 -1 56
-6 62 -10 7 -4 34 -8 60 -8 113 0 167 -5 171 -17 4 -14 62 -16 62 -2 0 15 19
12 37 -5 10 -11 34 -15 72 -15 31 0 79 -2 106 -5 153 -16 262 -24 354 -28 33
-1 56 -7 59 -15 4 -14 62 -16 62 -2 0 15 19 12 38 -6 12 -13 27 -15 68 -10 32
4 55 2 59 -4 4 -6 28 -10 53 -10 26 0 74 -2 107 -6 33 -3 87 -7 119 -7 37 -1
61 -7 63 -15 5 -14 73 -17 73 -2 0 15 19 12 37 -5 9 -9 32 -16 57 -15 22 0 70
-3 106 -6 36 -3 88 -6 115 -7 28 -1 55 -5 60 -8 6 -3 62 -7 125 -7 66 -1 116
-6 118 -12 5 -13 72 -13 72 0 0 6 9 10 20 10 11 0 20 -7 20 -16 0 -11 11 -15
48 -14 26 0 76 -2 112 -6 36 -3 88 -6 115 -7 28 -1 55 -5 60 -8 6 -3 62 -7
125 -7 66 -1 116 -6 118 -12 5 -15 72 -12 72 3 0 8 3 7 10 -3 9 -15 49 -20
185 -24 28 -1 60 -5 72 -9 13 -5 28 -5 35 -1 14 9 43 15 75 14 12 0 27 8 32
18 9 15 12 15 21 2 8 -12 12 -12 18 -2 6 8 31 13 70 13 34 0 62 4 62 8 0 4 13
6 30 3 18 -3 30 0 30 7 0 7 9 9 25 5 14 -3 25 -2 25 3 0 5 14 8 30 5 23 -3 30
0 30 12 0 9 5 16 10 16 6 0 10 -4 10 -10 0 -14 37 -13 42 2 2 6 24 11 51 11
26 0 47 4 47 9 0 5 13 7 30 3 20 -4 30 -3 30 5 0 8 9 10 24 6 14 -3 27 -2 30
3 3 5 16 7 28 4 14 -4 26 0 34 12 8 11 14 13 14 7 0 -17 37 -15 43 2 4 9 14
12 25 9 11 -2 23 0 26 6 4 5 13 8 21 4 8 -3 23 -2 33 2 17 7 33 11 80 17 12 2
27 10 33 18 8 11 12 12 16 3 7 -19 43 -16 43 3 0 12 7 14 30 9 17 -4 30 -3 30
2 0 5 13 8 30 5 17 -2 30 0 30 5 0 6 11 8 25 5 14 -2 25 0 25 5 0 5 14 8 30 5
18 -3 30 0 30 7 0 7 9 9 25 5 20 -5 25 -2 26 12 0 11 3 14 6 7 7 -19 53 -16
53 2 0 11 7 14 25 9 16 -4 25 -2 25 5 0 7 9 9 25 5 14 -3 31 -1 39 5 7 6 20 9
29 5 8 -3 18 -1 22 5 3 6 17 8 30 5 12 -3 26 -1 29 5 4 5 14 7 23 4 9 -4 21 1
29 12 8 10 14 13 14 7 0 -15 37 -16 42 -1 4 11 36 16 126 20 23 1 44 5 47 9 2
4 16 5 30 2 15 -2 25 0 25 7 0 7 9 9 25 5 19 -5 25 -2 25 10 0 9 5 16 10 16 6
0 10 -4 10 -10 0 -5 9 -10 20 -10 12 0 20 7 20 16 0 12 7 14 30 9 19 -4 30 -3
30 4 0 6 12 8 30 5 19 -4 30 -2 30 5 0 6 11 8 30 5 19 -4 30 -2 30 5 0 7 9 9
25 5 15 -4 25 -2 25 5 0 6 7 8 15 5 8 -4 23 -3 33 1 19 9 57 15 89 15 12 0 25
5 28 10 3 6 17 7 30 4 12 -3 26 -1 30 6 4 6 15 8 26 5 10 -4 24 -3 30 1 7 4
30 9 53 11 22 2 44 9 48 17 4 8 18 11 32 9 13 -3 27 0 30 6 4 6 20 8 36 4 17
-3 30 -1 30 4 0 5 14 8 30 5 18 -3 30 0 30 7 0 7 9 9 25 5 15 -4 25 -2 25 5 0
6 11 8 30 5 25 -5 30 -3 31 12 0 11 3 14 6 7 6 -17 33 -17 33 0 0 9 10 12 30
9 18 -2 30 0 30 7 0 6 11 8 30 4 18 -3 30 -1 30 5 0 5 9 8 20 5 11 -3 28 -2
37 2 10 5 28 7 40 6 12 -1 26 6 32 16 6 10 11 12 11 6 0 -18 27 -16 34 2 3 8
12 12 21 9 8 -4 21 -1 29 5 7 6 16 8 19 5 3 -4 14 -3 24 1 20 9 43 12 126 15
41 1 60 7 67 19 5 9 10 11 10 4 0 -18 40 -16 40 2 0 11 8 13 30 9 17 -4 30 -2
30 3 0 6 11 8 25 5 14 -2 25 0 25 7 0 6 11 8 30 4 17 -3 30 -1 30 4 0 6 11 8
25 5 15 -2 25 0 25 8 0 8 10 9 30 5 23 -5 30 -3 30 9 0 9 7 16 15 16 8 0 15
-4 15 -10 0 -5 5 -10 10 -10 6 0 10 7 10 16 0 12 7 14 30 9 17 -4 30 -2 30 3
0 5 12 9 28 10 92 1 142 6 142 13 0 5 14 6 30 3 23 -5 30 -3 30 10 0 19 16 22
22 4 3 -9 9 -8 21 4 9 9 25 14 36 11 10 -3 22 0 25 6 4 6 18 8 31 5 12 -3 26
-1 29 4 3 6 15 8 25 5 10 -3 22 0 25 5 3 6 16 8 28 5 14 -4 26 0 34 12 8 11
14 13 14 7 0 -17 37 -15 43 2 4 9 14 12 25 9 11 -2 23 0 26 6 4 5 13 8 21 4 8
-3 23 -2 33 2 18 8 54 14 85 16 9 0 17 5 17 10 0 7 12 8 30 4 23 -5 30 -3 30
9 0 9 7 16 15 16 8 0 15 -4 15 -10 0 -5 7 -10 15 -10 8 0 15 7 15 15 0 11 7
14 25 9 15 -4 25 -2 25 5 0 6 11 8 30 5 19 -4 30 -2 30 5 0 6 11 8 30 4 17 -3
30 -2 30 3 0 5 21 9 47 10 26 1 49 6 51 13 5 14 32 15 32 1 0 -5 7 -10 15 -10
8 0 15 6 15 14 0 9 8 12 25 8 14 -2 25 0 25 7 0 6 11 8 30 5 17 -4 30 -2 30 3
0 5 14 8 30 5 17 -2 30 0 30 5 0 6 11 8 24 6 13 -3 27 0 30 6 4 5 14 7 23 4 9
-4 21 1 29 12 8 10 14 13 14 7 0 -16 18 -15 36 3 8 8 21 12 28 9 8 -3 17 -1
21 5 3 6 17 8 30 5 12 -3 25 -1 29 4 3 5 17 7 31 4 14 -2 25 0 25 7 0 6 11 8
30 4 25 -4 30 -2 31 13 0 11 3 14 6 7 6 -17 53 -17 53 1 0 8 11 13 28 14 80 2
113 6 118 13 2 4 11 6 19 2 8 -3 23 -2 33 2 9 5 27 7 40 6 14 -2 22 3 22 13 0
9 5 16 10 16 6 0 10 -4 10 -10 0 -5 9 -10 20 -10 11 0 20 7 20 15 0 11 8 13
30 8 17 -3 30 -2 30 3 0 5 17 10 37 12 20 1 41 7 48 12 6 5 21 7 33 3 13 -3
22 -1 22 6 0 6 11 8 30 4 25 -4 30 -2 31 13 0 11 3 14 6 7 7 -18 53 -16 53 2
0 9 6 12 15 9 8 -4 23 -3 33 1 9 5 25 7 35 6 9 -1 17 3 17 9 0 7 8 9 20 5 11
-4 20 -2 20 4 0 6 7 8 15 5 8 -4 23 -3 33 1 9 5 27 7 40 6 12 -1 22 2 22 7 0
4 14 7 30 4 17 -2 30 0 30 6 0 6 9 8 20 5 12 -3 20 0 20 7 0 8 8 10 24 6 14
-3 28 -1 31 4 4 6 11 8 16 4 18 -11 69 7 70 24 0 11 2 12 6 5 6 -15 33 -17 33
-3 0 6 6 10 14 10 16 0 47 44 49 70 1 10 7 16 14 13 12 -5 18 8 14 30 -1 5 3
6 9 2 9 -6 14 7 8 21 -2 3 5 10 15 15 9 6 17 15 17 20 0 6 7 17 15 26 8 8 13
19 10 24 -4 5 -2 9 4 9 6 0 8 6 5 14 -3 7 2 16 11 20 9 3 13 10 10 16 -3 5 0
7 8 4 14 -5 50 69 53 110 1 10 8 22 15 27 10 6 11 9 2 9 -21 0 -15 17 8 23 14
4 20 11 16 21 -4 9 -1 15 6 13 7 -1 13 10 15 26 2 15 7 27 12 27 5 0 12 10 16
23 3 12 13 30 21 39 9 10 13 24 9 33 -4 11 -2 14 6 9 7 -5 9 -2 5 9 -4 11 -2
14 7 11 9 -3 18 6 24 25 6 17 9 31 6 31 -3 0 2 7 11 16 9 9 14 23 11 30 -3 8
1 14 9 14 18 0 38 37 31 56 -3 9 -1 12 4 9 5 -3 16 7 22 22 7 15 21 37 31 48
9 10 15 25 12 33 -3 8 0 10 7 6 8 -5 9 -2 5 10 -4 9 -3 15 2 11 8 -5 38 64 32
74 -2 2 2 7 7 10 6 3 12 15 14 26 1 11 9 25 17 31 8 6 11 18 8 27 -4 11 -2 14
8 11 9 -4 18 8 26 38 7 23 12 46 11 51 -1 4 6 7 15 7 14 0 15 2 5 9 -10 6 -8
10 8 14 16 4 21 11 16 22 -3 9 -2 14 3 10 5 -3 15 10 21 29 6 19 16 37 23 40
9 3 9 5 0 5 -19 1 -16 21 3 21 8 0 12 5 9 10 -3 6 -1 10 5 10 6 0 9 4 6 9 -3
5 1 12 10 15 11 4 14 13 11 27 -3 12 -3 18 0 15 3 -3 11 1 18 8 15 15 49 87
47 99 -1 4 3 7 8 7 13 0 62 109 54 121 -3 5 3 9 13 9 14 0 15 2 5 9 -10 6 -8
10 8 14 17 4 21 11 17 26 -3 14 -1 19 6 14 7 -4 8 0 4 11 -4 9 -3 15 2 12 10
-7 33 49 24 58 -4 3 -1 6 6 6 7 0 9 5 6 10 -3 6 -1 10 5 10 7 0 10 6 7 14 -3
8 2 20 11 28 13 11 14 11 7 -1 -5 -10 -4 -12 3 -7 7 4 12 13 12 21 0 7 4 15 9
17 5 2 11 10 13 18 2 8 7 18 11 21 4 3 9 16 10 27 1 12 5 22 10 22 4 0 5 5 2
10 -3 6 0 10 8 10 17 0 30 27 20 42 -3 6 -1 8 5 4 6 -3 15 8 22 29 6 19 18 42
27 50 8 8 10 15 4 15 -6 0 -11 5 -11 10 0 6 7 10 16 10 8 0 12 5 9 10 -3 6 -2
10 4 10 5 0 13 9 16 20 3 11 13 27 21 35 9 8 11 15 5 15 -6 0 -11 5 -11 10 0
6 7 10 15 10 13 0 17 6 14 26 0 3 7 12 17 18 11 9 15 19 10 32 -4 10 -4 15 0
12 3 -4 12 -1 19 6 18 18 45 83 37 90 -3 3 0 6 7 6 7 0 11 6 8 14 -3 8 1 17
10 20 9 4 13 13 9 22 -3 8 -2 13 3 10 9 -6 38 52 33 67 -1 4 6 7 15 7 15 0 16
2 3 10 -13 8 -12 10 3 10 10 0 15 5 12 10 -3 6 -1 10 5 10 7 0 9 7 6 16 -4 10
-2 13 6 8 8 -5 9 -2 5 10 -4 10 -3 15 3 11 5 -3 12 6 16 20 3 14 11 25 18 25
6 0 4 5 -4 10 -13 8 -12 10 3 10 10 0 15 4 12 10 -3 5 -1 10 5 10 7 0 10 7 6
15 -3 8 -1 15 5 15 6 0 8 4 5 8 -3 5 6 21 19 36 14 16 22 32 20 36 -3 5 0 10
5 12 6 2 12 13 13 26 0 12 4 22 8 22 16 0 40 33 35 47 -3 8 -2 12 3 8 5 -3 15
11 21 30 6 19 18 42 27 50 8 8 10 15 4 15 -19 0 -12 17 10 23 11 3 19 11 18
19 -4 15 19 59 35 70 8 5 7 8 -1 8 -7 0 -13 5 -13 10 0 6 7 10 15 10 8 0 15 5
15 10 0 21 2 25 16 33 8 4 14 15 14 22 0 8 5 15 11 15 10 0 42 65 42 88 0 6 5
12 10 12 5 0 7 7 3 15 -3 8 -1 15 4 15 12 0 61 100 54 111 -3 5 3 9 13 9 14 0
15 2 5 9 -10 6 -8 10 8 14 17 4 21 11 17 26 -3 14 -1 19 6 14 7 -4 8 0 4 11
-4 10 -3 15 3 11 6 -3 10 -2 10 3 0 5 9 19 20 32 11 12 17 27 14 31 -3 5 0 9
6 9 7 0 10 6 7 14 -3 8 1 17 10 20 8 4 13 13 10 21 -4 9 -1 12 9 8 10 -4 14 2
14 21 0 35 1 39 17 54 7 8 11 18 8 23 -4 5 -1 9 5 9 6 0 8 5 5 10 -3 6 0 10 8
10 17 0 30 27 20 42 -3 6 -1 8 4 5 10 -6 43 64 43 90 0 6 7 14 16 17 9 4 14
13 10 22 -3 8 -2 13 3 9 5 -3 15 11 21 30 6 19 17 35 23 35 7 0 6 4 -3 10 -13
8 -12 10 3 10 10 0 15 5 12 10 -3 6 -1 10 5 10 6 0 9 4 6 9 -3 5 1 12 10 15
10 4 14 14 11 25 -3 13 0 18 8 15 13 -5 52 80 47 103 -1 6 7 15 19 18 21 7 52
63 43 77 -3 5 -1 8 5 8 9 0 27 40 22 48 -1 2 5 10 15 16 11 8 15 20 11 30 -4
9 -3 15 2 12 5 -3 15 9 22 27 7 17 17 35 21 38 5 3 10 20 11 37 1 18 8 34 16
37 7 3 11 12 8 20 -4 9 -1 12 7 9 12 -5 30 28 27 49 -1 4 3 7 8 7 8 0 24 37
22 52 0 4 6 5 14 2 15 -6 22 20 8 29 -5 2 -3 2 4 1 11 -3 51 83 45 99 -1 4 6
7 15 8 11 0 13 3 6 6 -20 7 -15 20 8 26 15 4 20 11 15 22 -3 9 -2 13 3 10 5
-3 13 5 17 17 3 12 13 28 20 36 8 7 12 18 9 23 -4 5 -1 9 6 9 7 0 10 3 6 6 -3
4 1 13 9 22 9 8 13 23 11 33 -3 11 0 16 8 13 16 -7 45 67 48 123 0 6 6 9 12 7
11 -5 30 30 37 66 2 8 9 21 16 28 7 8 11 19 9 26 -2 6 6 16 17 22 12 5 20 18
20 27 -1 9 2 14 7 11 5 -3 9 -1 9 5 0 5 7 17 16 25 8 9 16 25 17 36 1 11 5 20
10 20 4 0 5 5 2 10 -3 6 -1 10 5 10 7 0 9 7 6 16 -4 10 -2 13 6 8 8 -5 9 -1 4
12 -4 10 -4 15 0 12 13 -14 52 50 46 75 -1 4 2 7 8 7 5 0 7 7 4 15 -4 8 -1 15
6 15 6 0 8 5 5 10 -3 6 -1 10 5 10 6 0 8 4 5 10 -3 6 1 7 9 4 11 -4 16 0 16
14 0 12 4 23 10 27 5 3 7 12 3 20 -3 8 0 15 7 15 6 0 9 4 5 9 -3 5 3 17 12 27
23 22 55 93 47 105 -3 5 2 9 10 9 15 0 20 11 17 38 -1 6 4 12 10 12 7 0 10 3
6 6 -3 3 3 14 14 25 10 10 19 26 19 34 0 8 4 15 10 15 5 0 16 14 25 30 9 17
12 30 8 30 -4 0 2 6 12 14 11 8 16 20 12 29 -4 11 -2 14 7 11 13 -5 39 43 39
72 0 8 4 14 9 14 5 0 6 5 3 10 -3 6 -1 10 5 10 7 0 10 7 6 15 -3 9 0 15 9 15
15 0 65 95 65 123 0 9 5 19 11 22 6 4 8 14 5 22 -4 9 -2 11 6 7 8 -5 9 -1 4
12 -4 10 -4 15 0 12 13 -14 52 50 46 75 -1 4 2 7 8 7 5 0 7 6 4 14 -3 7 2 16
11 20 10 3 15 13 12 21 -4 9 -1 12 9 8 14 -5 21 22 7 30 -5 2 -2 2 5 1 7 -2
15 9 19 26 3 17 10 30 15 30 5 0 6 5 3 10 -3 6 2 10 12 10 14 0 15 2 5 9 -10
6 -8 10 8 14 17 4 21 11 17 26 -3 12 0 24 5 28 7 4 8 1 4 -8 -4 -8 0 -5 8 6 9
11 14 25 12 32 -3 7 1 13 9 13 14 0 19 11 16 38 -1 6 4 12 10 12 7 0 10 3 7 6
-4 3 2 14 13 25 10 10 19 26 19 34 0 8 4 15 9 15 8 0 25 56 22 73 0 4 4 7 10
7 5 0 7 5 3 12 -4 6 0 16 8 22 17 13 52 76 42 76 -4 0 4 9 17 21 19 17 21 22
9 29 -13 8 -12 10 3 10 10 0 16 4 13 9 -3 5 1 12 10 15 10 4 14 14 11 26 -3
11 -1 18 3 15 5 -3 11 4 15 15 3 11 10 20 15 20 9 0 25 39 22 53 -1 4 3 7 9 7
6 0 9 6 6 14 -3 8 1 17 10 20 8 4 13 13 10 21 -4 9 -1 12 7 9 12 -5 25 21 25
49 0 4 7 15 16 23 8 9 13 20 10 25 -4 5 -1 9 5 9 6 0 8 5 5 10 -3 6 1 10 9 10
9 0 17 6 18 13 2 23 5 32 16 60 7 16 12 33 12 38 0 5 7 9 15 9 9 0 12 6 9 15
-4 8 -1 15 7 15 7 0 9 3 6 7 -4 3 -2 12 4 19 6 8 9 21 5 29 -4 11 -2 14 6 9 7
-5 9 -2 5 9 -4 10 -2 14 7 11 13 -5 50 69 47 94 -1 6 3 12 9 12 6 0 8 5 5 10
-3 6 1 10 10 10 10 0 25 23 42 60 14 33 31 60 37 60 6 0 4 5 -4 10 -13 8 -13
10 2 10 11 0 15 5 12 14 -3 7 2 16 11 20 11 4 15 12 11 23 -4 10 -4 14 0 11
12 -13 55 54 45 71 -2 2 2 7 9 11 6 4 12 21 12 39 1 20 4 27 9 19 10 -15 9
-16 39 51 14 30 32 61 40 69 11 11 12 16 3 19 -9 3 -6 11 8 26 11 12 18 30 15
40 -2 11 -2 16 1 13 8 -8 44 35 40 48 -2 6 2 17 10 24 7 8 11 18 8 23 -4 5 -1
9 5 9 6 0 8 5 5 10 -3 6 -1 10 5 10 6 0 8 4 5 10 -3 5 0 7 7 5 15 -6 62 80 53
96 -4 5 -1 9 5 9 6 0 8 5 5 10 -3 6 2 10 12 10 15 0 16 2 3 10 -13 8 -12 10 4
10 12 0 16 5 12 15 -3 8 -1 15 5 15 12 0 52 88 51 113 0 9 4 17 9 17 6 0 8 4
5 9 -3 5 1 12 10 15 8 3 14 13 12 22 -2 9 4 19 12 21 13 4 13 3 0 -6 -10 -7
-11 -11 -2 -11 13 0 62 101 65 133 1 9 5 17 10 17 4 0 6 4 3 9 -3 5 1 12 10
15 10 4 14 14 11 26 -3 13 -1 18 6 13 7 -4 8 0 4 11 -4 10 -3 15 3 11 6 -3 10
1 10 9 0 9 4 16 9 16 10 0 27 39 23 54 -2 5 6 15 17 23 12 8 18 20 15 31 -5
14 -4 14 5 2 12 -18 12 -18 40 50 13 30 27 57 32 60 5 3 9 20 11 38 1 17 9 34
16 37 9 3 12 13 9 25 -3 13 -1 18 6 13 6 -4 8 0 4 10 -4 11 -2 14 8 11 8 -4
18 8 26 33 7 21 12 42 11 46 -1 4 5 10 13 13 8 3 12 10 9 15 -3 5 2 9 11 9 14
0 36 39 34 58 -2 13 13 52 21 52 10 0 31 50 25 61 -4 5 -1 9 5 9 6 0 9 4 6 9
-3 5 1 12 10 15 10 4 14 14 11 25 -3 13 0 18 7 15 11 -4 56 75 48 84 -2 2 6
12 18 22 15 13 17 19 8 23 -9 4 -8 6 3 6 15 1 17 6 21 50 1 11 6 17 10 15 4
-3 10 7 14 21 3 14 10 25 14 25 9 0 33 56 33 76 0 8 4 14 9 14 5 0 6 5 3 10
-3 6 1 10 9 10 8 0 26 24 40 54 14 30 30 56 35 58 9 3 22 44 24 81 1 9 5 17
10 17 4 0 5 5 2 10 -3 6 -1 10 5 10 6 0 8 4 5 10 -3 6 1 7 9 4 16 -6 24 20 9
29 -5 2 -3 2 4 1 6 -2 18 14 27 35 8 21 23 46 32 56 15 14 15 18 3 26 -11 7
-10 9 4 9 10 0 15 5 12 10 -3 6 -2 10 3 10 5 0 9 7 10 15 1 8 3 21 4 29 1 8 7
12 13 10 11 -4 50 75 50 101 0 6 8 17 18 27 13 12 15 17 5 21 -8 3 -6 6 6 6
11 1 16 6 13 14 -3 7 4 19 15 26 13 8 18 19 15 33 -3 11 -3 17 0 14 3 -3 11 0
17 7 18 18 65 124 58 131 -3 3 0 6 7 6 7 0 9 5 6 10 -3 6 -1 10 5 10 7 0 10 5
8 12 -2 6 4 20 15 31 10 10 17 27 14 37 -3 12 0 17 8 14 11 -5 43 52 37 69 -1
4 3 7 8 7 6 0 10 11 10 25 0 14 6 25 13 25 8 0 7 4 -3 10 -13 8 -12 10 3 10
10 0 15 5 12 10 -3 6 -1 10 5 10 7 0 10 6 7 13 -3 7 4 19 15 26 12 8 18 19 15
31 -3 12 0 17 8 14 12 -5 53 81 47 99 -1 4 4 7 12 7 14 0 32 36 28 53 -1 4 3
7 9 7 6 0 9 7 5 15 -3 8 -1 15 5 15 6 0 7 5 4 10 -3 6 -1 10 5 10 6 0 8 5 5
10 -3 6 0 10 8 10 15 0 54 76 44 87 -4 3 1 13 11 22 18 16 52 84 52 102 0 6 7
17 15 26 9 8 14 20 12 27 -2 6 2 17 9 24 7 7 11 19 8 27 -4 8 -1 15 6 15 6 0
8 5 5 10 -3 6 -1 10 5 10 6 0 8 5 5 10 -3 6 2 10 12 11 10 0 13 3 6 6 -18 7
-16 23 3 23 8 0 12 5 9 10 -3 6 -1 10 5 10 6 0 8 5 5 10 -3 6 -1 10 5 10 6 0
8 5 5 10 -3 6 -1 10 5 10 6 0 8 5 5 10 -3 6 -1 10 5 10 6 0 8 5 5 10 -3 6 1
10 9 10 19 0 21 16 4 23 -8 3 -5 6 5 6 10 1 16 5 12 10 -3 6 3 14 12 20 10 5
15 13 11 16 -4 4 0 14 8 22 8 8 12 19 9 24 -4 5 0 9 8 9 8 0 18 12 22 28 12
42 15 132 6 132 -5 0 -9 6 -8 13 1 37 -4 49 -18 43 -8 -3 -14 -2 -14 2 3 20
-2 32 -15 32 -8 0 -16 5 -18 11 -2 7 -18 12 -36 13 -18 0 -32 4 -32 8 0 5 -15
8 -32 7 -18 0 -47 3 -63 6 -17 4 -34 3 -38 -1z m-748 -633 c25 -16 4 -77 -39
-118 -22 -20 -40 -42 -40 -50 0 -7 -4 -13 -10 -13 -14 0 -100 -82 -100 -95 0
-11 -70 -88 -116 -127 -29 -25 -64 -65 -64 -73 0 -10 -90 -95 -100 -95 -5 0
-11 -9 -15 -19 -3 -11 -60 -75 -125 -143 -66 -67 -120 -127 -120 -131 0 -4
-31 -39 -70 -77 -38 -39 -76 -83 -85 -100 -9 -16 -20 -30 -27 -30 -13 0 -107
-91 -108 -104 0 -5 -15 -24 -32 -41 -18 -18 -38 -39 -44 -46 -6 -8 -20 -21
-30 -31 -31 -27 -60 -62 -67 -81 -4 -9 -15 -20 -24 -24 -20 -7 -93 -79 -93
-91 0 -4 -31 -37 -70 -74 -38 -37 -70 -71 -70 -75 0 -5 -16 -23 -35 -42 -19
-18 -35 -37 -35 -42 0 -5 -6 -9 -12 -9 -7 0 -24 -16 -37 -36 -14 -20 -55 -66
-93 -102 -37 -37 -68 -72 -68 -79 0 -7 -7 -16 -16 -21 -22 -12 -104 -93 -104
-102 0 -4 -37 -47 -82 -95 -46 -47 -108 -113 -138 -145 -30 -33 -62 -62 -71
-65 -8 -3 -25 -22 -36 -43 -12 -20 -36 -51 -55 -68 -18 -17 -55 -57 -83 -89
-27 -32 -67 -74 -87 -93 -21 -20 -38 -41 -38 -49 0 -7 -7 -13 -16 -13 -15 0
-94 -77 -94 -91 0 -11 -38 -55 -112 -129 -38 -37 -68 -73 -68 -79 0 -6 -16
-21 -35 -32 -19 -12 -35 -25 -35 -29 0 -5 -9 -12 -20 -15 -11 -4 -27 -22 -34
-40 -8 -18 -24 -38 -35 -45 -12 -6 -21 -16 -21 -22 0 -6 -18 -29 -40 -52 -21
-23 -61 -63 -87 -91 -26 -27 -66 -66 -88 -86 -45 -41 -115 -121 -161 -185 -17
-24 -58 -66 -92 -95 -34 -29 -62 -58 -62 -65 0 -7 -12 -20 -27 -29 -16 -10
-46 -39 -68 -66 -22 -28 -51 -62 -65 -78 -14 -15 -39 -44 -56 -64 -17 -19 -41
-40 -53 -46 -11 -7 -21 -17 -21 -24 0 -6 -30 -42 -67 -79 -89 -88 -203 -211
-213 -229 -5 -8 -46 -53 -92 -100 -45 -47 -126 -132 -178 -189 -52 -57 -111
-119 -131 -139 -20 -20 -39 -44 -42 -54 -4 -9 -18 -22 -32 -29 -14 -6 -25 -16
-25 -21 0 -6 -15 -25 -32 -42 -18 -17 -43 -42 -55 -55 -12 -14 -51 -54 -87
-89 -36 -36 -66 -69 -66 -75 -1 -15 -38 -56 -75 -83 -16 -12 -43 -42 -60 -67
-16 -25 -34 -46 -40 -46 -14 0 -115 -104 -115 -117 0 -6 -11 -18 -25 -27 -14
-9 -25 -21 -25 -26 0 -5 -22 -31 -48 -57 -27 -27 -56 -60 -66 -75 -10 -16 -23
-28 -28 -28 -10 0 -98 -87 -98 -97 0 -3 -29 -34 -65 -70 -36 -35 -65 -69 -65
-74 0 -10 -37 -48 -128 -131 -22 -21 -42 -42 -44 -47 -4 -12 -156 -177 -225
-245 -29 -29 -53 -55 -53 -59 0 -4 -39 -48 -87 -97 -155 -157 -213 -219 -213
-227 0 -4 -31 -39 -69 -78 -146 -147 -231 -236 -231 -240 0 -3 -8 -13 -17 -24
-10 -10 -47 -49 -82 -87 -128 -139 -163 -175 -187 -190 -13 -9 -24 -21 -24
-26 0 -6 -21 -32 -47 -59 -27 -26 -64 -67 -83 -90 -19 -23 -60 -68 -92 -98
-31 -31 -62 -62 -70 -69 -57 -59 -68 -71 -68 -80 0 -16 -27 -22 -95 -22 -69 0
-165 18 -165 32 0 4 -7 8 -15 8 -26 0 -175 52 -175 61 0 5 -12 9 -26 9 -35 0
-167 40 -179 55 -5 6 -38 20 -72 30 -35 10 -63 21 -63 25 0 4 -43 20 -95 36
-52 15 -95 32 -95 36 0 4 -39 19 -87 34 -49 15 -90 30 -93 33 -3 4 -40 15 -84
26 -43 10 -80 25 -83 32 -3 7 -21 15 -41 18 -59 10 -122 27 -122 34 0 4 -20
13 -45 20 -27 8 -53 24 -63 38 -9 14 -27 34 -39 46 -13 11 -23 28 -23 37 0 8
-13 31 -30 50 -16 19 -43 51 -59 70 -17 19 -48 55 -70 80 -23 25 -41 50 -41
57 0 6 -8 18 -18 25 -10 7 -24 27 -30 44 -7 16 -28 48 -47 70 -19 21 -35 46
-35 55 0 9 -11 22 -25 29 -13 7 -27 21 -31 32 -3 10 -14 23 -25 28 -10 6 -19
15 -19 21 0 12 -34 60 -72 103 -16 17 -28 36 -28 43 0 7 -4 13 -10 13 -5 0
-28 29 -51 65 -22 36 -45 65 -50 65 -5 0 -13 8 -17 18 -12 30 -66 106 -84 120
-10 7 -18 19 -18 27 0 8 -8 20 -18 27 -9 7 -30 32 -45 56 -15 23 -32 42 -37
42 -6 0 -10 4 -10 10 0 5 -19 29 -42 52 -22 24 -52 66 -65 94 -13 28 -33 62
-46 76 -33 37 -67 86 -67 97 0 6 -9 15 -19 21 -11 5 -29 26 -41 45 -12 19 -28
35 -36 35 -8 0 -14 6 -14 13 0 7 -10 23 -22 37 -37 40 -78 98 -78 108 0 6 -7
12 -15 16 -8 3 -15 12 -15 20 0 23 -22 66 -34 66 -6 0 -21 16 -34 35 -12 19
-27 35 -32 35 -6 0 -10 6 -10 13 0 7 -8 20 -17 29 -30 27 -63 69 -78 98 -8 15
-21 30 -30 33 -8 4 -15 12 -15 19 0 8 -20 35 -45 62 -25 27 -45 58 -45 68 0
10 -7 21 -15 24 -8 4 -15 13 -15 20 0 8 -16 29 -35 47 -19 17 -35 36 -35 42 0
6 -10 21 -23 35 -13 14 -35 42 -49 63 -14 21 -35 45 -47 53 -12 9 -21 21 -21
27 0 7 -12 26 -27 42 -16 16 -37 43 -49 60 -11 16 -41 59 -65 95 -25 36 -48
73 -52 83 -3 9 -13 17 -21 17 -8 0 -17 8 -21 19 -3 10 -17 31 -30 45 -13 15
-36 45 -49 69 -14 23 -37 51 -51 61 -14 10 -25 22 -25 27 0 13 -62 101 -97
139 -18 19 -33 42 -33 52 0 10 -4 18 -10 18 -5 0 -21 20 -36 45 -14 25 -30 45
-35 45 -5 0 -13 8 -16 17 -4 9 -14 24 -22 33 -9 10 -27 33 -41 51 -14 19 -34
43 -46 55 -11 12 -26 36 -34 53 -7 18 -21 36 -31 42 -11 5 -19 14 -19 20 0 10
-34 62 -57 87 -7 7 -13 17 -13 22 0 8 -37 53 -95 115 -11 12 -26 33 -33 47 -8
13 -27 40 -43 59 -16 19 -29 41 -29 51 0 9 -13 29 -30 45 -16 15 -30 33 -30
39 0 6 -20 31 -45 55 -25 24 -45 49 -45 56 0 7 -3 13 -8 13 -4 0 -13 14 -21
32 -8 17 -21 38 -30 47 -23 23 -71 99 -71 111 0 5 -4 10 -9 10 -5 0 -20 17
-32 37 -13 21 -31 45 -41 55 -10 10 -18 22 -18 26 0 5 -8 17 -19 28 -10 11
-31 42 -46 70 -15 27 -31 51 -35 54 -13 9 -50 89 -50 110 0 11 -4 20 -10 20
-5 0 -10 11 -10 24 0 26 8 29 95 42 28 4 52 10 55 13 5 7 114 29 260 53 41 7
77 15 80 18 3 3 37 12 75 18 172 30 250 46 255 52 3 4 68 17 145 29 77 13 142
26 145 30 3 4 156 33 340 65 614 105 695 120 700 127 3 4 68 17 145 30 77 12
142 26 145 30 3 4 32 11 65 17 186 30 271 46 275 52 3 4 80 19 173 35 92 16
167 32 167 37 0 4 19 8 43 8 49 0 240 31 247 40 5 7 175 34 283 46 31 3 57 10
57 15 0 5 8 9 18 9 28 0 327 53 332 60 3 3 52 14 110 24 58 10 134 23 170 29
36 6 67 14 70 18 3 3 68 16 145 29 77 13 142 27 145 30 5 7 50 14 255 41 50 7
92 16 95 20 3 4 82 20 175 35 94 16 172 32 173 37 2 4 16 7 30 7 40 0 306 42
312 50 5 7 151 36 235 47 28 3 52 9 55 12 6 7 206 47 288 57 28 4 52 10 52 13
0 7 175 36 283 47 31 3 57 9 57 13 0 3 80 20 178 36 97 16 179 32 182 35 3 4
115 25 250 49 135 23 274 47 310 54 36 6 67 14 70 17 4 5 227 46 320 58 19 3
37 8 40 12 4 7 311 62 560 102 41 6 77 15 80 19 3 5 80 20 170 35 91 15 167
30 170 34 7 9 187 37 280 45 41 3 77 10 80 15 3 6 67 20 141 32 74 12 136 24
139 28 3 4 84 20 180 36 96 16 177 32 180 35 3 4 30 9 60 11 79 7 274 40 280
48 3 4 79 19 170 35 91 15 167 31 170 35 3 4 21 10 40 12 88 12 255 43 260 49
5 6 61 15 258 40 50 7 92 15 92 19 0 5 17 10 38 12 80 9 307 52 312 59 3 4 34
10 70 14 108 10 285 38 290 45 5 7 178 37 225 39 11 0 26 -3 34 -8z m-14381
-471 c-7 -10 -14 -17 -17 -15 -4 4 18 35 25 35 2 0 -1 -9 -8 -20z m510 -20
c11 -19 11 -19 -8 -8 -22 14 -36 40 -17 32 7 -2 18 -13 25 -24z m-13318 -110
c0 -5 -4 -10 -10 -10 -5 0 -10 5 -10 10 0 6 5 10 10 10 6 0 10 -4 10 -10z
m-968 -157 c46 -15 84 -30 86 -34 2 -4 42 -20 90 -35 48 -15 89 -31 92 -34 3
-4 77 -30 165 -59 88 -29 162 -56 165 -60 3 -4 46 -20 95 -36 50 -16 92 -32
95 -36 3 -4 19 -10 35 -14 72 -15 155 -40 155 -47 0 -4 39 -19 88 -34 48 -16
89 -31 92 -34 3 -4 38 -17 78 -30 39 -13 72 -27 72 -32 0 -4 6 -8 14 -8 7 0
26 -7 42 -15 16 -8 49 -17 74 -21 25 -4 47 -10 50 -13 3 -4 46 -20 95 -36 50
-16 96 -35 103 -42 7 -7 29 -15 50 -18 61 -10 122 -27 122 -35 0 -4 29 -15 66
-25 36 -10 71 -23 78 -30 13 -13 158 -65 182 -65 8 0 14 -4 14 -9 0 -5 26 -17
58 -26 77 -22 112 -36 112 -46 0 -4 17 -11 38 -14 65 -12 157 -38 168 -50 7
-6 38 -17 70 -25 33 -8 61 -17 64 -20 3 -4 46 -20 95 -36 50 -15 92 -31 95
-34 3 -3 43 -19 90 -35 47 -15 87 -32 90 -36 3 -5 37 -18 75 -30 39 -12 72
-24 75 -28 3 -3 93 -35 200 -70 331 -107 355 -116 358 -123 2 -5 36 -18 75
-30 40 -11 74 -24 77 -28 3 -4 43 -20 90 -35 47 -15 87 -31 90 -35 3 -3 46
-19 95 -35 50 -16 92 -32 95 -36 6 -9 128 -49 149 -49 23 0 175 -53 179 -62 2
-4 12 -8 22 -8 10 0 21 -4 24 -8 3 -5 31 -15 62 -22 31 -8 61 -19 68 -24 6 -6
52 -24 101 -40 50 -16 92 -33 95 -37 6 -8 127 -49 147 -49 7 0 13 -4 13 -9 0
-5 37 -21 82 -36 45 -14 85 -31 89 -36 3 -6 46 -16 94 -24 49 -8 91 -19 94
-23 3 -5 43 -21 89 -36 45 -15 82 -31 82 -34 0 -4 38 -18 85 -32 47 -14 85
-28 85 -31 0 -3 31 -16 70 -28 38 -12 76 -29 84 -37 8 -8 18 -14 22 -14 15 0
179 -53 184 -60 5 -6 90 -33 143 -44 15 -4 27 -11 27 -16 0 -6 13 -10 29 -10
30 0 132 -29 141 -40 5 -7 76 -33 143 -53 20 -6 37 -14 37 -18 0 -4 39 -20 88
-34 48 -15 89 -30 92 -34 3 -3 43 -19 90 -35 47 -16 87 -33 90 -36 3 -4 57
-24 120 -43 63 -20 169 -54 234 -77 65 -22 125 -40 132 -40 7 0 19 -6 26 -13
7 -7 47 -23 88 -37 41 -13 77 -28 80 -32 7 -8 158 -58 177 -58 7 0 13 -4 13
-9 0 -5 80 -35 178 -67 97 -32 180 -62 183 -66 8 -12 96 -38 126 -38 12 0 23
-4 23 -8 0 -8 154 -62 176 -62 7 0 14 -7 18 -15 3 -8 11 -15 18 -15 19 0 152
-43 158 -51 3 -3 42 -19 88 -34 45 -16 82 -32 82 -37 0 -4 10 -8 23 -8 28 0
130 -29 137 -39 3 -4 44 -20 93 -36 48 -16 87 -32 87 -37 0 -4 17 -10 38 -13
54 -10 146 -36 152 -44 3 -4 41 -20 85 -36 44 -16 82 -31 85 -35 6 -7 140 -50
158 -50 7 0 12 -4 12 -10 0 -5 19 -14 43 -20 70 -17 122 -34 127 -41 6 -7 170
-59 188 -59 7 0 12 -4 12 -9 0 -5 25 -17 56 -27 31 -9 62 -23 69 -31 8 -7 24
-13 37 -13 25 0 160 -40 168 -51 3 -3 41 -18 85 -34 44 -16 82 -32 85 -35 8
-11 146 -50 174 -50 14 0 26 -4 26 -8 0 -5 30 -19 68 -32 37 -13 73 -30 80
-37 7 -7 20 -13 28 -13 19 0 148 -42 154 -50 8 -12 129 -50 155 -50 14 0 25
-4 25 -9 0 -5 8 -12 18 -15 82 -22 168 -51 172 -57 5 -8 216 -80 288 -99 23
-6 42 -15 42 -19 0 -5 41 -21 90 -37 50 -15 90 -30 90 -34 0 -4 35 -17 77 -30
43 -13 83 -29 90 -36 8 -7 30 -16 51 -19 61 -10 122 -27 122 -35 0 -4 41 -20
90 -36 50 -15 90 -32 90 -36 0 -4 10 -8 22 -8 26 0 162 -42 166 -52 2 -4 33
-17 70 -29 37 -12 69 -25 72 -29 3 -4 46 -20 95 -35 50 -15 92 -30 95 -34 6
-8 50 -25 123 -47 31 -9 57 -21 57 -26 0 -4 10 -8 22 -8 27 0 161 -41 168 -51
3 -4 34 -15 70 -24 36 -9 67 -20 70 -24 5 -8 138 -51 157 -51 6 0 18 -6 25
-12 13 -13 84 -41 148 -60 19 -6 37 -13 40 -17 3 -4 46 -20 95 -36 50 -15 92
-31 95 -36 8 -12 220 -80 279 -90 30 -5 57 -13 60 -18 3 -5 42 -21 86 -37 44
-15 82 -31 85 -34 3 -3 40 -17 83 -30 42 -14 77 -28 77 -32 0 -4 8 -8 18 -8
10 0 22 -4 27 -8 6 -4 35 -16 65 -27 30 -10 57 -21 60 -25 3 -3 48 -19 100
-35 52 -15 97 -32 100 -36 9 -13 52 -26 110 -34 30 -4 57 -10 60 -14 3 -4 39
-17 80 -30 41 -14 77 -28 80 -32 3 -4 42 -19 88 -34 45 -14 82 -31 82 -36 0
-5 6 -9 14 -9 19 0 170 -51 176 -59 3 -4 44 -19 93 -35 48 -15 87 -31 87 -37
0 -5 6 -9 13 -9 26 0 132 -39 135 -49 2 -6 16 -11 31 -11 50 0 143 -23 148
-37 3 -7 11 -13 18 -13 18 0 169 -51 175 -59 6 -8 139 -51 157 -51 7 0 16 -6
20 -12 4 -7 40 -24 80 -37 40 -13 74 -27 75 -30 2 -4 46 -20 98 -36 52 -16
101 -35 108 -42 7 -7 23 -13 34 -13 22 0 290 -81 298 -90 7 -8 57 -29 110 -47
25 -9 47 -18 50 -22 3 -4 48 -20 100 -36 52 -15 97 -31 100 -34 8 -10 52 -29
110 -47 30 -9 57 -20 60 -24 5 -7 68 -24 130 -36 19 -4 37 -9 40 -13 10 -12
79 -40 116 -47 22 -4 41 -10 44 -14 3 -3 49 -19 103 -35 53 -16 97 -32 97 -36
0 -4 37 -20 83 -35 45 -15 84 -30 87 -33 3 -4 41 -18 85 -31 44 -13 82 -28 85
-32 8 -10 118 -48 141 -48 9 0 19 -4 21 -8 2 -4 43 -20 93 -35 49 -15 92 -32
95 -37 3 -5 44 -19 90 -31 47 -11 87 -24 90 -28 3 -4 40 -18 83 -31 42 -13 77
-27 77 -31 0 -4 37 -19 83 -34 45 -15 84 -30 87 -34 3 -4 34 -17 70 -28 145
-47 235 -82 238 -92 2 -6 9 -11 16 -11 8 0 36 -10 65 -21 79 -33 70 -52 -36
-74 -49 -10 -90 -21 -93 -25 -3 -4 -63 -20 -135 -36 -71 -15 -132 -31 -135
-35 -3 -4 -50 -17 -105 -28 -55 -12 -101 -26 -103 -32 -2 -5 -24 -9 -48 -9
-50 0 -236 -39 -244 -52 -3 -4 -64 -20 -135 -35 -72 -15 -132 -30 -135 -34 -8
-11 -183 -49 -225 -49 -19 0 -35 -3 -35 -8 0 -4 -51 -18 -112 -31 -62 -14
-115 -27 -118 -31 -3 -4 -61 -19 -130 -34 -68 -14 -127 -30 -130 -35 -5 -8
-33 -13 -207 -42 -40 -7 -73 -15 -73 -19 0 -4 -12 -10 -27 -13 -16 -3 -66 -13
-113 -23 -47 -9 -87 -20 -90 -24 -3 -4 -30 -13 -60 -19 -92 -19 -195 -46 -200
-52 -6 -7 -147 -35 -214 -43 -28 -4 -52 -10 -55 -14 -4 -5 -67 -21 -141 -36
-74 -16 -137 -32 -140 -36 -7 -10 -146 -40 -185 -40 -19 0 -35 -4 -37 -8 -1
-5 -61 -21 -133 -37 -71 -16 -132 -32 -135 -35 -3 -3 -63 -19 -135 -34 -71
-16 -132 -32 -135 -36 -3 -3 -65 -19 -137 -35 -73 -16 -133 -32 -133 -37 0 -4
-18 -8 -41 -8 -44 0 -181 -28 -189 -39 -3 -4 -52 -17 -110 -30 -115 -25 -181
-40 -311 -71 -48 -11 -96 -20 -108 -20 -11 0 -21 -4 -21 -10 0 -5 -6 -10 -12
-10 -22 1 -243 -53 -248 -60 -3 -4 -54 -17 -115 -30 -60 -12 -112 -26 -115
-31 -3 -4 -80 -24 -170 -42 -298 -63 -595 -131 -600 -138 -3 -3 -63 -19 -135
-34 -71 -14 -132 -30 -135 -35 -3 -4 -63 -20 -135 -36 -71 -15 -132 -31 -135
-34 -3 -4 -27 -11 -55 -17 -160 -34 -211 -46 -215 -52 -7 -10 -158 -41 -198
-41 -17 0 -32 -4 -32 -9 0 -6 -21 -12 -47 -16 -89 -10 -218 -36 -223 -44 -5
-8 -235 -61 -263 -61 -9 0 -17 -4 -19 -9 -3 -9 -216 -61 -250 -61 -10 0 -18
-4 -18 -9 0 -5 -12 -11 -27 -14 -80 -14 -189 -40 -193 -46 -3 -4 -63 -20 -135
-36 -71 -16 -133 -33 -136 -37 -3 -5 -63 -15 -134 -23 -70 -8 -131 -18 -134
-23 -3 -5 -66 -21 -138 -37 -73 -15 -133 -31 -133 -35 0 -4 -53 -18 -117 -30
-65 -13 -120 -26 -123 -30 -5 -7 -221 -60 -244 -60 -8 0 -16 -4 -18 -8 -1 -5
-61 -21 -133 -36 -71 -16 -132 -31 -135 -35 -5 -7 -123 -32 -385 -82 -66 -13
-122 -26 -125 -29 -3 -3 -61 -19 -130 -35 -69 -15 -127 -31 -130 -35 -3 -3
-63 -19 -135 -34 -71 -16 -132 -32 -135 -36 -3 -3 -54 -16 -114 -28 -61 -12
-112 -26 -115 -30 -3 -5 -31 -14 -61 -20 -82 -17 -392 -85 -585 -128 -93 -21
-172 -41 -175 -45 -3 -3 -21 -10 -40 -13 -96 -19 -186 -41 -190 -47 -4 -6 -55
-18 -215 -52 -27 -6 -52 -14 -55 -18 -3 -5 -64 -20 -135 -34 -72 -14 -131 -30
-133 -35 -2 -6 -18 -10 -35 -10 -39 0 -190 -31 -197 -41 -5 -7 -130 -33 -215
-44 -27 -4 -52 -10 -55 -14 -3 -4 -61 -19 -129 -34 -69 -15 -127 -31 -130 -35
-3 -5 -71 -22 -151 -37 -80 -16 -150 -34 -156 -40 -6 -6 -54 -19 -107 -29 -54
-11 -97 -22 -97 -26 0 -4 -31 -12 -70 -19 -38 -6 -99 -16 -135 -22 -36 -6 -65
-15 -65 -20 0 -5 -7 -9 -16 -9 -33 0 -249 -52 -252 -61 -2 -5 -21 -9 -43 -9
-44 0 -231 -38 -239 -49 -6 -8 -130 -39 -194 -47 -25 -4 -46 -10 -46 -14 0 -3
-57 -19 -127 -35 -71 -16 -130 -32 -133 -35 -6 -8 -145 -36 -220 -45 -30 -3
-57 -10 -60 -15 -3 -4 -66 -20 -140 -36 -74 -15 -137 -31 -141 -36 -3 -4 -26
-11 -52 -14 -39 -6 -47 -4 -47 9 0 9 -6 22 -13 29 -7 7 -24 42 -37 78 -13 36
-27 67 -32 70 -4 3 -16 33 -27 65 -11 33 -31 92 -46 130 -14 39 -31 84 -37
100 -6 17 -14 32 -18 35 -4 3 -18 39 -30 80 -13 41 -28 80 -35 85 -6 6 -22 40
-36 78 -13 37 -27 67 -31 67 -5 0 -8 11 -8 24 0 28 -37 148 -48 156 -9 6 -48
108 -92 243 -18 53 -37 97 -41 97 -5 0 -9 8 -9 18 -1 9 -9 35 -20 57 -11 22
-19 45 -20 52 0 6 -4 13 -8 15 -4 2 -21 41 -36 88 -16 47 -32 87 -35 90 -4 3
-13 25 -21 50 -7 25 -17 50 -21 55 -3 6 -24 62 -45 125 -22 63 -42 116 -46
118 -5 2 -8 15 -8 29 0 23 -27 92 -40 103 -3 3 -19 46 -35 95 -17 50 -33 92
-36 95 -4 3 -18 38 -32 79 -15 41 -30 77 -35 80 -5 3 -19 38 -32 76 -13 39
-26 72 -30 75 -7 6 -35 88 -45 138 -4 17 -11 32 -16 32 -5 0 -9 8 -9 18 0 10
-4 22 -9 28 -5 5 -14 36 -20 68 -6 33 -15 62 -20 65 -4 3 -21 42 -36 86 -15
44 -31 82 -35 85 -4 3 -17 34 -29 70 -13 36 -26 67 -30 70 -3 3 -14 28 -23 55
-23 70 -42 119 -49 125 -3 3 -19 43 -35 90 -16 47 -32 86 -36 88 -5 2 -8 16
-8 30 0 15 -7 40 -15 56 -8 15 -15 39 -15 51 0 13 -3 25 -8 27 -4 2 -18 37
-31 78 -13 41 -27 77 -31 80 -5 3 -20 39 -34 79 -14 41 -30 77 -34 80 -4 4
-20 45 -36 94 -15 48 -30 87 -34 87 -4 0 -14 21 -22 47 -7 26 -19 59 -27 73
-7 14 -13 33 -13 43 0 9 -4 17 -9 17 -9 0 -55 139 -66 203 -4 20 -11 40 -16
43 -5 3 -9 14 -9 24 0 10 -6 25 -13 32 -8 7 -26 54 -42 103 -15 50 -31 92 -35
95 -4 3 -17 32 -29 65 -12 33 -26 62 -30 65 -4 3 -20 46 -36 95 -16 50 -32 92
-35 95 -8 7 -60 143 -60 158 0 6 -4 12 -8 12 -8 0 -29 77 -39 143 -3 20 -9 37
-13 37 -4 0 -13 20 -20 45 -7 25 -17 48 -21 51 -5 3 -9 14 -9 25 0 10 -4 19
-9 19 -6 0 -22 39 -37 88 -15 48 -30 89 -34 92 -3 3 -19 40 -34 83 -15 42 -31
77 -35 77 -3 0 -19 43 -36 95 -16 52 -33 95 -37 95 -4 0 -12 27 -19 61 -7 33
-17 66 -23 72 -17 18 -36 65 -36 89 0 23 -21 90 -31 98 -3 3 -19 43 -35 90
-16 47 -34 91 -40 97 -7 7 -22 45 -35 85 -12 40 -25 75 -29 78 -3 3 -17 37
-31 75 -13 39 -27 72 -31 75 -9 7 -34 85 -42 133 -4 20 -10 37 -14 37 -5 0
-21 38 -36 85 -16 47 -32 85 -37 85 -5 0 -9 15 -9 34 0 19 -4 37 -9 40 -5 4
-12 24 -16 46 -4 22 -11 40 -15 40 -5 0 -15 19 -21 43 -7 23 -16 47 -19 52 -4
6 -10 23 -14 40 -4 16 -11 32 -15 35 -5 3 -20 42 -35 88 -15 45 -31 82 -36 82
-5 0 -12 15 -15 33 -4 17 -10 37 -14 42 -4 6 -22 60 -41 120 -19 61 -39 115
-45 120 -6 6 -37 90 -69 188 -33 97 -62 177 -66 177 -4 0 -19 37 -35 83 -15
45 -31 84 -34 87 -4 3 -18 40 -31 83 -13 42 -27 77 -32 77 -4 0 -8 13 -8 29 0
17 -4 32 -9 35 -5 3 -12 21 -15 41 -4 19 -12 40 -19 47 -7 7 -25 54 -40 103
-15 50 -32 92 -37 93 -6 2 -10 12 -10 22 0 10 -4 22 -10 25 -5 3 -10 19 -10
35 0 16 -7 35 -15 44 -8 8 -15 18 -15 23 0 21 -53 173 -61 173 -5 0 -9 8 -9
18 -1 9 -9 35 -20 57 -11 22 -19 48 -20 57 0 9 -6 23 -14 30 -7 8 -22 51 -31
97 -10 46 -23 88 -30 94 -6 7 -22 41 -35 77 -13 36 -27 67 -31 70 -3 3 -19 46
-34 95 -16 50 -32 93 -38 96 -5 4 -13 27 -17 50 -8 46 -30 110 -41 119 -4 3
-19 46 -35 95 -15 50 -31 92 -35 95 -13 9 -29 60 -29 91 0 16 -6 32 -14 35 -8
3 -17 17 -20 32 -16 69 -52 168 -63 175 -7 4 -13 14 -13 21 0 19 -41 140 -49
146 -23 16 -51 157 -34 173 14 15 85 6 165 -20z m13461 -98 c-3 -9 -8 -14 -10
-11 -3 3 -2 9 2 15 9 16 15 13 8 -4z m401 -301 c3 -9 6 -26 6 -39 0 -13 4 -25
8 -27 7 -3 46 -222 59 -335 3 -29 9 -53 13 -53 10 0 28 -129 36 -260 4 -58 10
-107 14 -110 7 -5 32 -145 46 -257 4 -29 10 -53 14 -53 4 0 10 -17 13 -37 12
-102 51 -329 56 -333 7 -6 32 -136 52 -272 7 -49 16 -88 20 -88 4 0 19 -80 35
-177 15 -98 31 -180 34 -183 4 -3 18 -70 31 -150 12 -80 26 -147 29 -150 4 -3
10 -50 14 -105 7 -110 26 -237 36 -245 4 -3 20 -84 35 -180 16 -96 32 -177 35
-180 4 -3 19 -84 35 -180 15 -96 31 -177 35 -180 3 -3 17 -72 30 -155 13 -82
27 -152 31 -155 4 -3 19 -91 34 -195 15 -105 31 -191 36 -193 5 -2 9 -28 9
-58 0 -49 -2 -54 -22 -54 -28 0 -211 51 -218 61 -3 4 -18 11 -34 15 -17 4 -41
13 -55 20 -14 8 -31 14 -38 14 -6 0 -13 4 -15 8 -4 10 -148 52 -176 52 -11 0
-22 3 -24 8 -1 4 -42 20 -90 37 -49 16 -88 32 -88 35 0 4 -26 12 -57 19 -107
23 -143 34 -143 41 0 4 -10 10 -22 13 -32 7 -122 41 -128 48 -3 3 -48 19 -100
34 -52 16 -97 33 -100 37 -6 8 -253 91 -307 103 -18 3 -33 10 -33 14 0 5 -38
21 -85 36 -47 16 -85 32 -85 37 0 4 -13 8 -28 8 -31 0 -154 37 -162 49 -3 4
-45 21 -95 37 -49 16 -92 32 -95 35 -3 3 -36 16 -75 29 -38 13 -72 26 -75 30
-3 4 -25 10 -50 14 -25 4 -58 13 -74 21 -16 8 -34 15 -41 15 -7 0 -15 3 -17 8
-1 4 -43 20 -93 37 -49 16 -92 33 -95 37 -8 10 -130 48 -157 48 -13 0 -23 4
-23 8 0 5 -28 17 -61 27 -34 11 -67 24 -73 30 -6 6 -50 23 -98 39 -49 15 -88
31 -88 35 0 4 -18 13 -40 20 -30 9 -40 17 -40 32 0 24 26 72 58 107 12 14 22
33 22 43 0 10 9 21 20 24 11 3 20 12 20 18 0 11 14 28 85 110 8 9 15 22 15 27
0 6 4 10 10 10 5 0 22 19 36 43 15 23 30 44 34 47 4 3 15 20 24 38 9 17 21 32
27 32 5 0 13 8 16 17 6 15 15 26 58 74 8 9 15 20 15 26 0 6 18 28 40 49 22 22
40 45 40 51 0 7 11 20 25 29 14 9 25 22 25 29 0 8 10 22 23 32 12 10 29 32 37
48 8 17 26 42 40 56 14 14 44 48 67 75 24 27 50 57 58 67 8 9 15 23 15 30 0 6
12 26 28 42 15 17 40 48 56 70 17 22 40 50 53 62 13 12 23 27 23 32 0 6 9 15
20 21 11 6 20 16 20 23 0 7 16 30 35 52 82 93 99 116 116 155 5 13 14 27 18
30 4 3 17 20 30 38 12 17 29 32 37 32 8 0 14 4 14 9 0 14 103 164 123 179 9 7
17 19 17 27 0 7 10 22 23 32 12 10 31 31 41 47 10 16 34 44 52 63 19 19 34 40
34 48 0 8 4 15 10 15 5 0 22 19 36 43 15 23 30 44 34 47 4 3 15 20 24 38 9 18
24 36 32 39 7 3 14 10 14 17 0 6 36 49 80 96 44 47 80 91 80 97 0 7 9 18 20
25 11 7 20 19 20 26 0 15 39 73 58 85 6 4 12 14 12 22 0 7 16 28 35 46 19 19
35 38 35 44 0 6 12 22 28 36 40 37 122 142 122 157 0 5 11 17 25 26 14 9 25
22 25 30 0 7 10 21 21 32 12 10 28 34 36 52 7 17 17 32 22 32 4 0 21 19 37 42
16 23 36 50 44 59 8 9 26 30 40 48 27 34 54 40 64 15z m1094 -219 c-3 -3 -9 2
-12 12 -6 14 -5 15 5 6 7 -7 10 -15 7 -18z m146 -191 c3 -8 2 -12 -4 -9 -6 3
-10 10 -10 16 0 14 7 11 14 -7z m56 -65 c0 -14 -17 -10 -23 5 -4 10 -1 13 9 9
7 -3 14 -9 14 -14z m49 -63 c-3 -3 -11 5 -18 17 -13 21 -12 21 5 5 10 -10 16
-20 13 -22z m-2618 -259 c-10 -9 -11 -8 -5 6 3 10 9 15 12 12 3 -3 0 -11 -7
-18z m-200 -250 c-10 -9 -11 -8 -5 6 3 10 9 15 12 12 3 -3 0 -11 -7 -18z
m15379 -127 c0 -5 -4 -10 -10 -10 -5 0 -10 5 -10 10 0 6 5 10 10 10 6 0 10 -4
10 -10z m-15470 -14 c0 -2 -7 -7 -16 -10 -8 -3 -12 -2 -9 4 6 10 25 14 25 6z
m-130 -166 c0 -5 -4 -10 -10 -10 -5 0 -10 5 -10 10 0 6 5 10 10 10 6 0 10 -4
10 -10z m-500 -624 c0 -8 -6 -16 -13 -19 -7 -2 -23 -25 -36 -50 -13 -25 -30
-48 -37 -51 -8 -3 -14 -12 -14 -20 0 -7 -12 -27 -27 -44 -16 -16 -35 -41 -43
-55 -19 -30 -57 -81 -90 -118 -21 -23 -67 -90 -115 -168 -5 -9 -19 -26 -30
-37 -53 -55 -83 -91 -94 -111 -6 -13 -18 -23 -25 -23 -7 0 -18 -10 -24 -22 -7
-13 -28 -43 -47 -68 -19 -25 -39 -54 -44 -65 -5 -11 -31 -43 -58 -71 -26 -29
-64 -71 -83 -94 -35 -41 -36 -41 -89 -36 -30 3 -57 9 -60 13 -10 13 -72 39
-128 53 -29 8 -53 17 -53 22 0 9 -95 38 -128 38 -13 0 -30 6 -37 14 -8 7 -48
24 -89 36 -42 13 -76 27 -76 31 0 4 -12 10 -27 13 -52 13 -168 50 -173 56 -8
9 -80 38 -127 51 -24 7 -43 16 -43 21 0 4 -8 8 -19 8 -25 0 -124 32 -132 42
-5 7 -108 42 -271 92 -31 10 -66 26 -78 36 -12 11 -37 24 -56 30 -39 13 -45
30 -10 30 13 0 26 4 28 9 3 9 191 51 228 51 10 0 20 4 22 9 2 5 71 21 153 35
83 15 209 38 280 51 72 13 213 39 315 57 102 17 187 35 190 39 5 6 109 25 275
52 39 6 72 14 75 17 3 4 82 19 175 35 94 16 172 32 175 35 5 7 218 46 308 57
23 3 42 9 42 14 0 7 18 10 93 17 9 1 17 -4 17 -12z m13990 -3136 c0 -5 -4 -10
-10 -10 -5 0 -10 5 -10 10 0 6 5 10 10 10 6 0 10 -4 10 -10z m-820 -1554 c0
-2 -7 -7 -16 -10 -8 -3 -12 -2 -9 4 6 10 25 14 25 6z m-4750 -936 c0 -38 -6
-47 -115 -155 -64 -63 -119 -115 -123 -115 -9 0 -20 -10 -106 -99 -33 -34 -65
-61 -73 -61 -7 0 -13 -5 -13 -11 0 -14 -106 -117 -159 -153 -22 -16 -58 -48
-78 -72 -21 -25 -53 -53 -70 -64 -18 -11 -33 -25 -33 -32 0 -14 -57 -68 -165
-155 -73 -59 -165 -146 -165 -156 0 -8 -71 -77 -79 -77 -4 0 -24 -17 -43 -37
-46 -50 -99 -93 -114 -93 -6 0 -38 -31 -70 -70 -32 -38 -61 -70 -66 -70 -4 0
-38 -31 -76 -70 -38 -38 -74 -70 -80 -70 -6 0 -19 -11 -27 -24 -9 -14 -30 -29
-46 -35 -16 -5 -29 -14 -29 -19 0 -21 -308 -312 -345 -326 -14 -6 -27 -17 -30
-26 -6 -19 -93 -110 -104 -110 -4 0 -43 -34 -87 -76 -43 -41 -108 -101 -142
-132 -35 -31 -96 -90 -136 -129 -40 -40 -76 -73 -80 -73 -4 0 -37 -29 -74 -65
-123 -119 -216 -205 -223 -205 -9 0 -139 -133 -139 -142 0 -4 -18 -17 -40 -29
-22 -13 -40 -25 -40 -29 0 -10 -80 -90 -91 -90 -6 0 -41 -31 -78 -70 -37 -38
-72 -70 -78 -70 -7 0 -15 -9 -18 -20 -4 -11 -19 -28 -33 -38 -15 -9 -52 -42
-83 -72 -80 -79 -172 -160 -180 -160 -4 0 -18 -14 -30 -31 -27 -38 -90 -98
-104 -99 -13 -1 -65 -47 -65 -58 0 -13 -99 -102 -113 -102 -7 0 -24 -15 -37
-32 -37 -50 -82 -98 -93 -98 -12 0 -78 -58 -119 -106 -9 -10 -56 -55 -104 -99
-48 -44 -104 -97 -125 -117 -21 -21 -42 -38 -47 -38 -5 0 -20 -12 -35 -27 -14
-16 -31 -32 -37 -38 -6 -5 -45 -45 -86 -87 l-75 -78 -62 0 c-34 0 -89 5 -122
10 -33 5 -145 17 -250 26 -104 9 -191 20 -193 25 -2 5 -16 9 -30 9 -56 -1
-647 54 -652 60 -3 4 -68 12 -145 18 -77 6 -205 17 -285 24 -80 6 -147 15
-150 18 -6 8 -352 37 -540 45 -74 4 -137 10 -140 14 -3 5 -156 21 -340 36
-184 16 -337 31 -340 35 -3 4 -81 12 -175 19 -93 6 -246 16 -340 23 -93 6
-172 14 -175 18 -5 6 -484 51 -542 50 -14 0 -28 4 -30 9 -3 7 -124 19 -543 53
-77 7 -142 15 -145 18 -7 9 -505 50 -607 50 -46 0 -83 4 -83 8 0 4 -71 14
-157 21 -87 7 -225 19 -308 27 -82 8 -169 14 -192 14 -23 0 -43 4 -45 9 -1 5
-127 19 -278 31 -151 13 -277 26 -280 30 -3 4 -63 11 -135 14 -216 11 -550 39
-555 46 -3 4 -93 15 -200 24 -409 33 -475 40 -480 47 -3 3 -75 12 -160 18 -85
7 -191 16 -235 21 -44 5 -223 21 -397 36 l-318 28 0 33 c0 29 3 33 38 39 20 4
39 10 42 14 5 7 156 44 380 93 52 11 97 24 98 29 2 4 10 8 19 8 25 0 238 53
243 61 3 4 30 11 60 14 81 9 210 37 210 45 0 4 61 19 135 35 74 15 135 31 135
35 0 4 49 18 110 30 60 13 110 27 110 32 0 4 8 8 18 8 9 0 53 9 97 20 44 11
94 20 112 20 17 0 33 4 35 8 2 5 41 17 88 26 47 10 108 23 135 29 28 5 53 14
56 19 5 8 42 15 187 38 39 7 72 16 72 21 0 5 8 9 18 9 26 0 206 42 212 50 3 3
64 19 135 35 72 15 132 31 135 35 5 7 86 27 218 53 28 6 52 14 52 18 0 4 24
10 53 13 67 9 201 38 207 46 8 10 157 40 199 40 22 0 41 4 43 10 2 5 62 22
133 37 72 15 132 30 135 34 3 4 61 19 130 35 69 16 127 32 128 36 2 4 10 8 18
8 24 0 199 43 204 51 3 3 70 20 150 37 80 17 217 47 305 67 88 20 203 45 255
57 52 11 97 24 100 27 3 4 52 17 110 30 58 13 107 27 110 31 3 4 66 20 140 35
74 14 137 30 140 34 3 4 64 20 135 36 72 15 132 31 135 35 6 9 187 50 218 50
31 0 265 52 272 60 3 3 65 19 138 34 72 16 132 32 132 36 0 4 24 11 53 17 131
26 212 46 217 53 3 4 52 17 110 30 58 12 107 25 110 29 3 5 66 20 140 36 74
15 137 31 140 36 3 4 64 15 135 24 71 9 132 20 135 24 3 4 61 20 130 35 69 15
126 31 128 36 2 5 57 18 123 31 65 12 119 25 119 29 0 4 60 20 133 36 72 15
134 31 137 34 6 7 221 60 244 60 9 0 16 4 16 9 0 8 121 33 223 46 26 4 47 10
47 16 0 5 17 9 37 9 45 0 196 31 203 42 3 4 62 20 130 35 69 15 127 30 130 33
3 4 64 19 135 35 72 16 132 32 135 35 3 3 64 19 135 34 72 16 132 32 135 36 3
4 79 23 170 43 91 20 259 57 375 82 115 26 212 50 215 54 3 4 55 18 115 31 61
13 112 26 115 30 3 3 64 19 135 34 72 16 132 31 135 35 5 7 214 55 425 98 72
15 132 30 135 34 8 11 133 39 173 39 20 0 37 5 37 10 0 6 8 10 17 10 25 0 237
52 243 59 3 4 65 19 139 34 74 14 137 30 140 35 3 5 67 21 141 37 74 16 137
32 138 37 2 4 18 8 35 8 38 0 190 31 197 41 4 6 162 44 233 56 15 3 27 9 27
13 0 5 26 11 58 14 81 9 216 37 222 46 3 5 66 21 140 36 74 15 137 30 140 34
3 4 52 18 110 30 58 13 107 27 110 30 7 9 99 27 148 29 l42 1 0 -40z m-17600
-440 c0 -5 -4 -10 -10 -10 -5 0 -10 5 -10 10 0 6 5 10 10 10 6 0 10 -4 10 -10z
m20120 -2800 c0 -5 -4 -10 -10 -10 -5 0 -10 5 -10 10 0 6 5 10 10 10 6 0 10
-4 10 -10z"/>
</g>
</svg>
